<svg width="36" height="36" viewBox="0 0 36 36" fill="none" xmlns="http://www.w3.org/2000/svg">
<circle cx="18" cy="18" r="18" fill="#38F8E6"/>
<path d="M24.9547 23.0918C22.3869 22.4328 19.3017 13.2327 17.9801 8.36997C17.9311 8.18982 18.0858 8.02003 18.2712 8.04191C29.0843 9.31815 28.3611 19.0166 27.6379 21.5222C27.0525 23.5506 25.6052 23.4137 24.9547 23.0918Z" fill="#17181A"/>
<path d="M11.0454 23.0918C13.6132 22.4328 16.6985 13.2327 18.02 8.36997C18.069 8.18982 17.9144 8.02003 17.729 8.04191C6.91582 9.31815 7.63901 19.0166 8.36221 21.5222C8.94764 23.5506 10.395 23.4137 11.0454 23.0918Z" fill="#17181A"/>
<path d="M21.926 23.7385C22.3887 24.7608 22.6315 26.0556 21.7965 26.8052C20.9456 27.569 19.4451 27.9988 17.8801 27.9988C16.068 27.9988 14.3423 27.4225 13.6116 26.4187C13.1536 25.7895 13.3015 24.9299 13.617 24.2186C14.2561 22.7782 15.561 21.3443 17.8801 21.3443C20.3535 21.3443 21.3245 22.4094 21.926 23.7385Z" fill="#17181A"/>
</svg>
