<svg width="24" height="24" viewBox="0 0 24 24" fill="none" xmlns="http://www.w3.org/2000/svg">
<g clip-path="url(#clip0_1421_16014)">
<rect width="24" height="24" rx="12" fill="#EBEDFF"/>
<path d="M-1.18262 15.7892C-0.881152 17.4243 0.0518631 18.4222 1.48668 18.8725C1.5134 18.4776 1.57064 18.1036 1.65459 17.7449C0.355236 17.3786 -0.581595 16.5276 -1.18071 15.7892H-1.18262Z" fill="#A2A3A3"/>
<path d="M14.2585 8.86506C15.0828 9.0883 16.1398 8.88033 16.8992 8.71433C17.4239 8.40905 17.4811 8.00073 17.567 7.62867C17.6109 7.43978 17.6662 7.2051 17.6796 7.06009C17.6968 6.86165 17.7006 6.81586 16.7695 6.68612C15.5388 6.51631 15.3976 6.47433 15.3117 6.24346C15.1419 5.78554 15.0866 5.18642 14.8557 4.90213C14.4703 4.42322 13.8788 4.18472 13.4553 4.11985C12.6176 3.99583 11.2649 3.83365 10.6715 4.40987C11.1294 4.46711 11.6503 4.56823 11.8735 5.03188C12.4326 6.18813 13.3961 8.6361 12.3295 9.36878C11.8411 9.70458 10.9787 9.76755 10.3681 9.75038C9.9159 12.0285 8.21968 13.202 6.11897 14.0453C3.78548 14.9802 2.39263 16.478 2.2419 18.987C2.19801 19.7579 2.19992 20.3837 2.47086 21.0839C3.27413 23.1465 5.30043 24.1215 6.80013 23.9879C8.07658 23.8773 9.3912 23.8963 10.6657 23.9211C10.7096 22.6695 10.5379 22.5684 9.31106 22.555C9.17178 22.555 9.04394 22.4768 8.97907 22.3528C8.78827 21.996 9.21757 21.8891 9.26146 21.1965C9.29771 20.3627 8.72721 19.6987 7.97737 19.4068C7.78084 19.3305 7.68353 19.1091 7.75985 18.9126C7.83617 18.7161 8.0575 18.6188 8.25403 18.6951C9.00006 18.9851 9.56101 19.5327 9.83768 20.1853C10.2994 19.6567 10.9558 19.2332 11.7266 18.9737L11.7228 18.3841C11.7228 18.1742 11.8907 18.0006 12.1006 17.9987C12.3066 18.0025 12.4841 18.1666 12.486 18.3765C12.4974 19.9716 12.4974 21.5457 12.4974 23.1408C12.6558 23.5853 13.1233 23.8963 13.6537 23.904C15.5941 23.9288 15.8212 23.9269 15.8021 23.9269C16.0177 23.9269 16.0692 23.7914 16.0692 23.7437C16.0807 22.8202 15.8632 22.5607 15.0122 22.4806C14.8157 22.4615 14.6668 22.2974 14.6649 22.1009C14.6611 16.1422 14.5733 16.2891 14.9149 15.9915C16.6416 14.4727 16.695 12.9463 14.9435 11.1661C14.4818 10.6967 14.4684 10.1587 14.8748 9.71603C14.5943 9.70458 14.3158 9.67024 14.0582 9.59964C13.854 9.54431 13.7338 9.33443 13.7892 9.13218C13.8445 8.92803 14.0525 8.80782 14.2566 8.86315L14.2585 8.86506ZM13.6136 6.33504C13.3179 6.33504 13.0622 6.10799 13.0622 5.79889C13.0622 5.08912 14.165 5.08912 14.165 5.79889C14.165 6.1099 13.9036 6.33504 13.6136 6.33504Z" fill="#A2A3A3"/>
<path d="M11.897 8.73715C12.2462 8.49674 11.96 7.19166 11.4505 5.95718C11.1338 5.18635 11.2578 5.24931 10.2771 5.1272C9.83445 5.28365 8.66674 7.21456 8.36719 8.28686C8.35574 8.32502 8.33284 8.40706 8.52555 8.54444C9.26586 9.07296 11.3131 9.13973 11.897 8.73715Z" fill="#A2A3A3"/>
</g>
<rect x="0.25" y="0.25" width="23.5" height="23.5" rx="11.75" stroke="#A2A3A3" stroke-width="0.5"/>
<defs>
<clipPath id="clip0_1421_16014">
<rect width="24" height="24" rx="12" fill="white"/>
</clipPath>
</defs>
</svg>
