<svg width="16" height="16" viewBox="0 0 16 16" fill="none" xmlns="http://www.w3.org/2000/svg">
<g id="shield_person">
<mask id="mask0_1453_15677" style="mask-type:alpha" maskUnits="userSpaceOnUse" x="0" y="0" width="16" height="16">
<rect id="Bounding box" width="16" height="16" fill="#D9D9D9"/>
</mask>
<g mask="url(#mask0_1453_15677)">
<path id="shield_person_2" d="M7.99935 8.66634C7.34379 8.66634 6.79102 8.44134 6.34102 7.99134C5.89102 7.54134 5.66602 6.98856 5.66602 6.33301C5.66602 5.67745 5.89102 5.12467 6.34102 4.67467C6.79102 4.22467 7.34379 3.99967 7.99935 3.99967C8.6549 3.99967 9.20768 4.22467 9.65768 4.67467C10.1077 5.12467 10.3327 5.67745 10.3327 6.33301C10.3327 6.98856 10.1077 7.54134 9.65768 7.99134C9.20768 8.44134 8.6549 8.66634 7.99935 8.66634ZM7.99935 7.33301C8.28824 7.33301 8.52713 7.23856 8.71602 7.04967C8.9049 6.86079 8.99935 6.6219 8.99935 6.33301C8.99935 6.04412 8.9049 5.80523 8.71602 5.61634C8.52713 5.42745 8.28824 5.33301 7.99935 5.33301C7.71046 5.33301 7.47157 5.42745 7.28268 5.61634C7.09379 5.80523 6.99935 6.04412 6.99935 6.33301C6.99935 6.6219 7.09379 6.86079 7.28268 7.04967C7.47157 7.23856 7.71046 7.33301 7.99935 7.33301ZM7.99935 14.6663C6.4549 14.2775 5.1799 13.3913 4.17435 12.008C3.16879 10.6247 2.66602 9.08856 2.66602 7.39967V3.33301L7.99935 1.33301L13.3327 3.33301V7.39967C13.3327 9.08856 12.8299 10.6247 11.8243 12.008C10.8188 13.3913 9.54379 14.2775 7.99935 14.6663ZM7.99935 2.74967L3.99935 4.24967V7.39967C3.99935 7.99967 4.08268 8.58301 4.24935 9.14967C4.41602 9.71634 4.64379 10.2497 4.93268 10.7497C5.39935 10.5163 5.88824 10.333 6.39935 10.1997C6.91046 10.0663 7.44379 9.99967 7.99935 9.99967C8.5549 9.99967 9.08824 10.0663 9.59935 10.1997C10.1105 10.333 10.5993 10.5163 11.066 10.7497C11.3549 10.2497 11.5827 9.71634 11.7493 9.14967C11.916 8.58301 11.9993 7.99967 11.9993 7.39967V4.24967L7.99935 2.74967ZM7.99935 11.333C7.59935 11.333 7.21046 11.3775 6.83268 11.4663C6.4549 11.5552 6.09379 11.6775 5.74935 11.833C6.07157 12.1663 6.42157 12.4552 6.79935 12.6997C7.17713 12.9441 7.57713 13.133 7.99935 13.2663C8.42157 13.133 8.82157 12.9441 9.19935 12.6997C9.57713 12.4552 9.92713 12.1663 10.2493 11.833C9.9049 11.6775 9.54379 11.5552 9.16602 11.4663C8.78824 11.3775 8.39935 11.333 7.99935 11.333Z" fill="#A2A3A3"/>
</g>
</g>
</svg>
