<svg width="22" height="22" viewBox="0 0 22 22" fill="none" xmlns="http://www.w3.org/2000/svg">
<g id="1. Icons-24">
<path id="Vector" d="M12.8337 11.917C12.0698 11.917 11.4205 11.6496 10.8857 11.1149C10.351 10.5802 10.0837 9.93088 10.0837 9.16699C10.0837 8.4031 10.351 7.7538 10.8857 7.21908C11.4205 6.68435 12.0698 6.41699 12.8337 6.41699C13.5975 6.41699 14.2469 6.68435 14.7816 7.21908C15.3163 7.7538 15.5837 8.4031 15.5837 9.16699C15.5837 9.93088 15.3163 10.5802 14.7816 11.1149C14.2469 11.6496 13.5975 11.917 12.8337 11.917ZM6.41699 14.667C5.91283 14.667 5.48123 14.4875 5.1222 14.1285C4.76317 13.7694 4.58366 13.3378 4.58366 12.8337V5.50033C4.58366 4.99616 4.76317 4.56456 5.1222 4.20553C5.48123 3.84651 5.91283 3.66699 6.41699 3.66699H19.2503C19.7545 3.66699 20.1861 3.84651 20.5451 4.20553C20.9041 4.56456 21.0837 4.99616 21.0837 5.50033V12.8337C21.0837 13.3378 20.9041 13.7694 20.5451 14.1285C20.1861 14.4875 19.7545 14.667 19.2503 14.667H6.41699ZM8.25033 12.8337H17.417C17.417 12.3295 17.5965 11.8979 17.9555 11.5389C18.3146 11.1798 18.7462 11.0003 19.2503 11.0003V7.33366C18.7462 7.33366 18.3146 7.15415 17.9555 6.79512C17.5965 6.43609 17.417 6.00449 17.417 5.50033H8.25033C8.25033 6.00449 8.07081 6.43609 7.71178 6.79512C7.35276 7.15415 6.92116 7.33366 6.41699 7.33366V11.0003C6.92116 11.0003 7.35276 11.1798 7.71178 11.5389C8.07081 11.8979 8.25033 12.3295 8.25033 12.8337ZM18.3337 18.3337H2.75033C2.24616 18.3337 1.81456 18.1541 1.45553 17.7951C1.09651 17.4361 0.916992 17.0045 0.916992 16.5003V6.41699H2.75033V16.5003H18.3337V18.3337Z" fill="#35BEB1"/>
</g>
</svg>
