<svg width="24" height="25" viewBox="0 0 24 25" fill="none" xmlns="http://www.w3.org/2000/svg">
<path d="M4 20.8235C3.45 20.8235 2.97917 20.6277 2.5875 20.236C2.19583 19.8443 2 19.3735 2 18.8235V6.82349C2 6.27349 2.19583 5.80265 2.5875 5.41099C2.97917 5.01932 3.45 4.82349 4 4.82349H20C20.55 4.82349 21.0208 5.01932 21.4125 5.41099C21.8042 5.80265 22 6.27349 22 6.82349V18.8235C22 19.3735 21.8042 19.8443 21.4125 20.236C21.0208 20.6277 20.55 20.8235 20 20.8235H4ZM12 13.8235L4 8.82349V18.8235H20V8.82349L12 13.8235ZM12 11.8235L20 6.82349H4L12 11.8235ZM4 8.82349V6.82349V18.8235V8.82349Z" fill="#38F8E6"/>
</svg>
