<svg width="16" height="16" viewBox="0 0 16 16" fill="none" xmlns="http://www.w3.org/2000/svg">
<g id="edit_note">
<mask id="mask0_1465_14693" style="mask-type:alpha" maskUnits="userSpaceOnUse" x="0" y="0" width="16" height="16">
<rect id="Bounding box" width="16" height="16" fill="#D9D9D9"/>
</mask>
<g mask="url(#mask0_1465_14693)">
<path id="edit_note_2" d="M2.66699 9.33366V8.00033H7.33366V9.33366H2.66699ZM2.66699 6.66699V5.33366H10.0003V6.66699H2.66699ZM2.66699 4.00033V2.66699H10.0003V4.00033H2.66699ZM8.66699 13.3337V11.2837L12.3503 7.61699C12.4503 7.51699 12.5614 7.44477 12.6837 7.40033C12.8059 7.35588 12.9281 7.33366 13.0503 7.33366C13.1837 7.33366 13.3114 7.35866 13.4337 7.40866C13.5559 7.45866 13.667 7.53366 13.767 7.63366L14.3837 8.25033C14.4725 8.35033 14.542 8.46144 14.592 8.58366C14.642 8.70588 14.667 8.8281 14.667 8.95033C14.667 9.07255 14.6448 9.19755 14.6003 9.32533C14.5559 9.4531 14.4837 9.56699 14.3837 9.66699L10.717 13.3337H8.66699ZM9.66699 12.3337H10.3003L12.317 10.3003L12.017 9.98366L11.7003 9.68366L9.66699 11.7003V12.3337ZM12.017 9.98366L11.7003 9.68366L12.317 10.3003L12.017 9.98366Z" fill="#A2A3A3"/>
</g>
</g>
</svg>
