<svg width="16" height="16" viewBox="0 0 16 16" fill="none" xmlns="http://www.w3.org/2000/svg">
<g id="1. Icons-24">
<path id="Vector" d="M3.14694 12.6663C2.83318 12.6663 2.56358 12.5577 2.33815 12.3404C2.11272 12.1231 2 11.8633 2 11.5609V4.44636C2 4.14178 2.11272 3.88007 2.33815 3.66124C2.56358 3.44242 2.83318 3.33301 3.14694 3.33301H12.8449C13.1609 3.33301 13.4324 3.44242 13.6595 3.66124C13.8865 3.88007 14 4.14178 14 4.44636V11.5609C14 11.8633 13.8865 12.1231 13.6595 12.3404C13.4324 12.5577 13.1609 12.6663 12.8449 12.6663H3.14694ZM12.8449 5.3953L8.3102 8.29824C8.25572 8.32754 8.20451 8.35048 8.15658 8.36706C8.10863 8.38364 8.05508 8.39194 7.99591 8.39194C7.93674 8.39194 7.88319 8.38364 7.83524 8.36706C7.78731 8.35048 7.7361 8.32754 7.68161 8.29824L3.14694 5.3953V11.5609H12.8449V5.3953ZM7.99591 7.4885L12.787 4.44636H3.21933L7.99591 7.4885ZM3.14694 5.51665V4.84569V4.85853V4.44636V4.85409V4.83347V5.51665Z" fill="#A2A3A3"/>
</g>
</svg>
