<svg width="16" height="16" viewBox="0 0 16 16" fill="none" xmlns="http://www.w3.org/2000/svg">
<path d="M3.14694 12.6666C2.83318 12.6666 2.56358 12.558 2.33815 12.3407C2.11272 12.1234 2 11.8636 2 11.5612V4.44667C2 4.14208 2.11272 3.88037 2.33815 3.66154C2.56358 3.44272 2.83318 3.33331 3.14694 3.33331H12.8449C13.1609 3.33331 13.4324 3.44272 13.6595 3.66154C13.8865 3.88037 14 4.14208 14 4.44667V11.5612C14 11.8636 13.8865 12.1234 13.6595 12.3407C13.4324 12.558 13.1609 12.6666 12.8449 12.6666H3.14694ZM12.8449 5.39561L8.3102 8.29855C8.25572 8.32785 8.20451 8.35078 8.15658 8.36736C8.10863 8.38395 8.05508 8.39224 7.99591 8.39224C7.93674 8.39224 7.88319 8.38395 7.83524 8.36736C7.78731 8.35078 7.7361 8.32785 7.68161 8.29855L3.14694 5.39561V11.5612H12.8449V5.39561ZM7.99591 7.48881L12.787 4.44667H3.21933L7.99591 7.48881ZM3.14694 5.51696V4.846V4.85884V4.44667V4.8544V4.83377V5.51696Z" fill="#F4F5F7"/>
</svg>
