<svg width="24" height="24" viewBox="0 0 24 24" fill="none" xmlns="http://www.w3.org/2000/svg">
<g id="1. Icons-24">
<path id="Vector" d="M12.0028 15.7498C13.1841 15.7498 14.1873 15.3363 15.0123 14.5094C15.8373 13.6824 16.2498 12.6783 16.2498 11.4969C16.2498 10.3155 15.8363 9.31233 15.0094 8.48733C14.1824 7.66233 13.1783 7.24983 11.9969 7.24983C10.8155 7.24983 9.81233 7.66331 8.98733 8.49028C8.16233 9.31723 7.74983 10.3214 7.74983 11.5028C7.74983 12.6841 8.16331 13.6873 8.99028 14.5123C9.81723 15.3373 10.8214 15.7498 12.0028 15.7498ZM11.9973 14.0737C11.2816 14.0737 10.6741 13.8232 10.1748 13.3223C9.67556 12.8213 9.42593 12.213 9.42593 11.4973C9.42593 10.7816 9.67642 10.1741 10.1774 9.67483C10.6784 9.17556 11.2867 8.92593 12.0024 8.92593C12.7181 8.92593 13.3255 9.17642 13.8248 9.6774C14.3241 10.1784 14.5737 10.7867 14.5737 11.5024C14.5737 12.2181 14.3232 12.8255 13.8223 13.3248C13.3213 13.8241 12.713 14.0737 11.9973 14.0737ZM11.9998 19.3249C9.49113 19.3249 7.22519 18.6002 5.202 17.1509C3.17881 15.7016 1.66974 13.8179 0.674805 11.4998C1.66974 9.18171 3.17881 7.29801 5.202 5.84873C7.22519 4.39945 9.49113 3.6748 11.9998 3.6748C14.5085 3.6748 16.7745 4.39945 18.7977 5.84873C20.8209 7.29801 22.3299 9.18171 23.3249 11.4998C22.3299 13.8179 20.8209 15.7016 18.7977 17.1509C16.7745 18.6002 14.5085 19.3249 11.9998 19.3249ZM11.9969 17.4998C14.0096 17.4998 15.8586 16.954 17.5438 15.8623C19.229 14.7707 20.5132 13.3165 21.3966 11.4998C20.5132 9.68316 19.23 8.229 17.5467 7.13733C15.8635 6.04566 14.0155 5.49983 12.0028 5.49983C9.99005 5.49983 8.14108 6.04566 6.45588 7.13733C4.77068 8.229 3.47808 9.68316 2.57808 11.4998C3.47808 13.3165 4.7697 14.7707 6.45293 15.8623C8.13615 16.954 9.98413 17.4998 11.9969 17.4998Z" fill="#38F8E6"/>
</g>
</svg>
