<svg width="16" height="16" viewBox="0 0 16 16" fill="none" xmlns="http://www.w3.org/2000/svg">
<mask id="mask0_628_2994" style="mask-type:alpha" maskUnits="userSpaceOnUse" x="0" y="0" width="16" height="16">
<rect width="16" height="16" fill="#D9D9D9"/>
</mask>
<g mask="url(#mask0_628_2994)">
<path d="M5.33325 7.33331C5.52214 7.33331 5.68047 7.26942 5.80825 7.14165C5.93603 7.01387 5.99992 6.85554 5.99992 6.66665C5.99992 6.47776 5.93603 6.31942 5.80825 6.19165C5.68047 6.06387 5.52214 5.99998 5.33325 5.99998C5.14436 5.99998 4.98603 6.06387 4.85825 6.19165C4.73047 6.31942 4.66658 6.47776 4.66658 6.66665C4.66658 6.85554 4.73047 7.01387 4.85825 7.14165C4.98603 7.26942 5.14436 7.33331 5.33325 7.33331ZM7.99992 7.33331C8.18881 7.33331 8.34714 7.26942 8.47492 7.14165C8.6027 7.01387 8.66658 6.85554 8.66658 6.66665C8.66658 6.47776 8.6027 6.31942 8.47492 6.19165C8.34714 6.06387 8.18881 5.99998 7.99992 5.99998C7.81103 5.99998 7.6527 6.06387 7.52492 6.19165C7.39714 6.31942 7.33325 6.47776 7.33325 6.66665C7.33325 6.85554 7.39714 7.01387 7.52492 7.14165C7.6527 7.26942 7.81103 7.33331 7.99992 7.33331ZM10.6666 7.33331C10.8555 7.33331 11.0138 7.26942 11.1416 7.14165C11.2694 7.01387 11.3333 6.85554 11.3333 6.66665C11.3333 6.47776 11.2694 6.31942 11.1416 6.19165C11.0138 6.06387 10.8555 5.99998 10.6666 5.99998C10.4777 5.99998 10.3194 6.06387 10.1916 6.19165C10.0638 6.31942 9.99992 6.47776 9.99992 6.66665C9.99992 6.85554 10.0638 7.01387 10.1916 7.14165C10.3194 7.26942 10.4777 7.33331 10.6666 7.33331ZM1.33325 14.6666V2.66665C1.33325 2.29998 1.46381 1.98609 1.72492 1.72498C1.98603 1.46387 2.29992 1.33331 2.66659 1.33331H13.3333C13.6999 1.33331 14.0138 1.46387 14.2749 1.72498C14.536 1.98609 14.6666 2.29998 14.6666 2.66665V10.6666C14.6666 11.0333 14.536 11.3472 14.2749 11.6083C14.0138 11.8694 13.6999 12 13.3333 12H3.99992L1.33325 14.6666ZM3.43325 10.6666H13.3333V2.66665H2.66659V11.4166L3.43325 10.6666Z" fill="#A2A3A3"/>
</g>
</svg>
