<svg width="16" height="16" viewBox="0 0 16 16" fill="none" xmlns="http://www.w3.org/2000/svg">
<g id="sms">
<mask id="mask0_1465_14624" style="mask-type:alpha" maskUnits="userSpaceOnUse" x="0" y="0" width="16" height="16">
<rect id="Bounding box" width="16" height="16" fill="#D9D9D9"/>
</mask>
<g mask="url(#mask0_1465_14624)">
<path id="sms_2" d="M5.33301 7.33301C5.5219 7.33301 5.68023 7.26912 5.80801 7.14134C5.93579 7.01356 5.99967 6.85523 5.99967 6.66634C5.99967 6.47745 5.93579 6.31912 5.80801 6.19134C5.68023 6.06356 5.5219 5.99967 5.33301 5.99967C5.14412 5.99967 4.98579 6.06356 4.85801 6.19134C4.73023 6.31912 4.66634 6.47745 4.66634 6.66634C4.66634 6.85523 4.73023 7.01356 4.85801 7.14134C4.98579 7.26912 5.14412 7.33301 5.33301 7.33301ZM7.99967 7.33301C8.18856 7.33301 8.3469 7.26912 8.47467 7.14134C8.60245 7.01356 8.66634 6.85523 8.66634 6.66634C8.66634 6.47745 8.60245 6.31912 8.47467 6.19134C8.3469 6.06356 8.18856 5.99967 7.99967 5.99967C7.81079 5.99967 7.65245 6.06356 7.52467 6.19134C7.3969 6.31912 7.33301 6.47745 7.33301 6.66634C7.33301 6.85523 7.3969 7.01356 7.52467 7.14134C7.65245 7.26912 7.81079 7.33301 7.99967 7.33301ZM10.6663 7.33301C10.8552 7.33301 11.0136 7.26912 11.1413 7.14134C11.2691 7.01356 11.333 6.85523 11.333 6.66634C11.333 6.47745 11.2691 6.31912 11.1413 6.19134C11.0136 6.06356 10.8552 5.99967 10.6663 5.99967C10.4775 5.99967 10.3191 6.06356 10.1913 6.19134C10.0636 6.31912 9.99967 6.47745 9.99967 6.66634C9.99967 6.85523 10.0636 7.01356 10.1913 7.14134C10.3191 7.26912 10.4775 7.33301 10.6663 7.33301ZM1.33301 14.6663V2.66634C1.33301 2.29967 1.46356 1.98579 1.72467 1.72467C1.98579 1.46356 2.29967 1.33301 2.66634 1.33301H13.333C13.6997 1.33301 14.0136 1.46356 14.2747 1.72467C14.5358 1.98579 14.6663 2.29967 14.6663 2.66634V10.6663C14.6663 11.033 14.5358 11.3469 14.2747 11.608C14.0136 11.8691 13.6997 11.9997 13.333 11.9997H3.99967L1.33301 14.6663ZM3.43301 10.6663H13.333V2.66634H2.66634V11.4163L3.43301 10.6663Z" fill="white"/>
</g>
</g>
</svg>
