<svg width="20" height="20" viewBox="0 0 20 20" fill="none" xmlns="http://www.w3.org/2000/svg">
<path d="M8.44651 14.2437L15.8269 6.82414L14.4693 5.45239L8.44651 11.5002L5.59868 8.65239L4.24106 10.0241L8.44651 14.2437ZM2.62693 19.3535C2.08515 19.3535 1.61963 19.1589 1.23038 18.7696C0.841118 18.3803 0.646484 17.9148 0.646484 17.373V2.62739C0.646484 2.08172 0.841118 1.61287 1.23038 1.22084C1.61963 0.828821 2.08515 0.632812 2.62693 0.632812H17.3726C17.9183 0.632812 18.3871 0.828821 18.7791 1.22084C19.1712 1.61287 19.3672 2.08172 19.3672 2.62739V17.373C19.3672 17.9148 19.1712 18.3803 18.7791 18.7696C18.3871 19.1589 17.9183 19.3535 17.3726 19.3535H2.62693Z" fill="#35BEB1"/>
</svg>
