<svg width="20" height="20" viewBox="0 0 20 20" fill="none" xmlns="http://www.w3.org/2000/svg">
<g id="1. Icons-24">
<g id="whatsapp 2 (Traced)">
<path id="Layer 1" fill-rule="evenodd" clip-rule="evenodd" d="M8.74227 2.52223C8.20931 2.62402 7.17387 2.98439 6.62145 3.26039C4.87277 4.13414 3.53614 5.63669 2.93191 7.40816C2.58764 8.4174 2.53004 8.78378 2.53213 9.95304C2.5339 10.9456 2.55877 11.1578 2.75341 11.8424C2.87408 12.2666 3.08903 12.8485 3.23109 13.1357L3.48935 13.6577L3.36721 14.0996C3.29996 14.3426 3.1999 14.715 3.1447 14.9271C3.04772 15.2999 2.85548 15.9924 2.7165 16.4695C2.53807 17.0815 2.46712 17.4378 2.51414 17.4849C2.54263 17.5133 2.71349 17.5005 2.89385 17.4566C3.7426 17.2497 6.30358 16.5745 6.35137 16.545C6.38087 16.5268 6.58045 16.5963 6.7947 16.6996C9.38109 17.9459 12.5699 17.5595 14.8139 15.7281C16.007 14.7543 16.7732 13.6318 17.2822 12.1123C17.4946 11.4781 17.5016 11.4068 17.4998 9.91448L17.4979 8.37213L17.2306 7.59872C16.4238 5.2646 14.7485 3.59138 12.4179 2.79191C11.6575 2.53102 11.6031 2.52369 10.2864 2.5048C9.54331 2.49408 8.84843 2.50194 8.74227 2.52223ZM11.1357 3.8697C13.7379 4.27086 15.8813 6.53743 16.1786 9.20199C16.5346 12.395 14.4991 15.1746 11.2538 15.9263C10.6554 16.0649 9.54462 16.0818 8.95838 15.9611C8.37608 15.8413 7.5359 15.5345 7.06285 15.2689L6.65735 15.0413L5.51182 15.3405L4.3662 15.6398L4.67179 14.5509L4.97738 13.462L4.66716 12.8836C4.49653 12.5654 4.25788 12.0101 4.1369 11.6496C3.93662 11.0532 3.91678 10.8968 3.91678 9.91448C3.91678 8.92953 3.93623 8.7773 4.13829 8.17933C4.26012 7.81881 4.42697 7.39158 4.50896 7.22994C5.31594 5.64047 6.82852 4.37937 8.41105 3.97674C9.39113 3.72742 10.0462 3.70166 11.1357 3.8697ZM7.03822 6.51961C6.80806 6.64462 6.48896 7.08149 6.30482 7.5236C5.99722 8.26208 6.35284 9.44344 7.2046 10.5125C7.78412 11.2398 8.71255 12.1547 9.19757 12.4764C9.72637 12.827 10.8542 13.3206 11.3877 13.4349C12.0057 13.5673 12.7007 13.4803 13.1265 13.2174C13.5835 12.9352 13.8093 12.6013 13.8774 12.1069C13.9206 11.7924 13.9049 11.689 13.7953 11.568C13.7207 11.4857 13.6122 11.4183 13.5541 11.4183C13.496 11.4183 13.1722 11.2795 12.8343 11.1098C11.9955 10.6886 11.8747 10.7022 11.4446 11.2663C11.2535 11.517 11.0354 11.7231 10.9598 11.7244C10.7645 11.7277 10.0069 11.3249 9.55489 10.9775C9.16275 10.6759 8.5098 9.92705 8.31138 9.55125C8.20823 9.35584 8.21533 9.32592 8.42178 9.08855C8.81531 8.63602 8.91839 8.27835 8.74521 7.96618C8.61843 7.73784 8.27903 6.94437 8.27903 6.87643C8.27903 6.84104 8.20699 6.72058 8.11897 6.60884C7.98602 6.43995 7.89801 6.40617 7.59782 6.40872C7.39924 6.41041 7.14739 6.46031 7.03822 6.51961Z" fill="#A2A3A3"/>
<path id="Layer 2" fill-rule="evenodd" clip-rule="evenodd" d="M8.74227 2.52223C8.20931 2.62402 7.17387 2.98439 6.62145 3.26039C4.87277 4.13414 3.53614 5.63669 2.93191 7.40816C2.58764 8.4174 2.53004 8.78378 2.53213 9.95304C2.5339 10.9456 2.55877 11.1578 2.75341 11.8424C2.87408 12.2666 3.08903 12.8485 3.23109 13.1357L3.48935 13.6577L3.36721 14.0996C3.29996 14.3426 3.1999 14.715 3.1447 14.9271C3.04772 15.2999 2.85548 15.9924 2.7165 16.4695C2.53807 17.0815 2.46712 17.4378 2.51414 17.4849C2.54263 17.5133 2.71349 17.5005 2.89385 17.4566C3.7426 17.2497 6.30358 16.5745 6.35137 16.545C6.38087 16.5268 6.58045 16.5963 6.7947 16.6996C9.38109 17.9459 12.5699 17.5595 14.8139 15.7281C16.007 14.7543 16.7732 13.6318 17.2822 12.1123C17.4946 11.4781 17.5016 11.4068 17.4998 9.91448L17.4979 8.37213L17.2306 7.59872C16.4238 5.2646 14.7485 3.59138 12.4179 2.79191C11.6575 2.53102 11.6031 2.52369 10.2864 2.5048C9.54331 2.49408 8.84843 2.50194 8.74227 2.52223ZM11.1357 3.8697C13.7379 4.27086 15.8813 6.53743 16.1786 9.20199C16.5346 12.395 14.4991 15.1746 11.2538 15.9263C10.6554 16.0649 9.54462 16.0818 8.95838 15.9611C8.37608 15.8413 7.5359 15.5345 7.06285 15.2689L6.65735 15.0413L5.51182 15.3405L4.3662 15.6398L4.67179 14.5509L4.97738 13.462L4.66716 12.8836C4.49653 12.5654 4.25788 12.0101 4.1369 11.6496C3.93662 11.0532 3.91678 10.8968 3.91678 9.91448C3.91678 8.92953 3.93623 8.7773 4.13829 8.17933C4.26012 7.81881 4.42697 7.39158 4.50896 7.22994C5.31594 5.64047 6.82852 4.37937 8.41105 3.97674C9.39113 3.72742 10.0462 3.70166 11.1357 3.8697ZM7.03822 6.51961C6.80806 6.64462 6.48896 7.08149 6.30482 7.5236C5.99722 8.26208 6.35284 9.44344 7.2046 10.5125C7.78412 11.2398 8.71255 12.1547 9.19757 12.4764C9.72637 12.827 10.8542 13.3206 11.3877 13.4349C12.0057 13.5673 12.7007 13.4803 13.1265 13.2174C13.5835 12.9352 13.8093 12.6013 13.8774 12.1069C13.9206 11.7924 13.9049 11.689 13.7953 11.568C13.7207 11.4857 13.6122 11.4183 13.5541 11.4183C13.496 11.4183 13.1722 11.2795 12.8343 11.1098C11.9955 10.6886 11.8747 10.7022 11.4446 11.2663C11.2535 11.517 11.0354 11.7231 10.9598 11.7244C10.7645 11.7277 10.0069 11.3249 9.55489 10.9775C9.16275 10.6759 8.5098 9.92705 8.31138 9.55125C8.20823 9.35584 8.21533 9.32592 8.42178 9.08855C8.81531 8.63602 8.91839 8.27835 8.74521 7.96618C8.61843 7.73784 8.27903 6.94437 8.27903 6.87643C8.27903 6.84104 8.20699 6.72058 8.11897 6.60884C7.98602 6.43995 7.89801 6.40617 7.59782 6.40872C7.39924 6.41041 7.14739 6.46031 7.03822 6.51961Z" fill="#A2A3A3"/>
</g>
</g>
</svg>
