<svg width="16" height="16" viewBox="0 0 16 16" fill="none" xmlns="http://www.w3.org/2000/svg">
<path fill-rule="evenodd" clip-rule="evenodd" d="M6.74227 0.522225C6.20931 0.62402 5.17387 0.98439 4.62145 1.26039C2.87277 2.13414 1.53614 3.63669 0.931912 5.40816C0.587641 6.4174 0.530044 6.78378 0.532129 7.95304C0.533905 8.94561 0.558766 9.15784 0.753407 9.84241C0.874083 10.2666 1.08903 10.8485 1.23109 11.1357L1.48935 11.6577L1.36721 12.0996C1.29996 12.3426 1.1999 12.715 1.1447 12.9271C1.04772 13.2999 0.855476 13.9924 0.716501 14.4695C0.538074 15.0815 0.46712 15.4378 0.514139 15.4849C0.542629 15.5133 0.71349 15.5005 0.893848 15.4566C1.7426 15.2497 4.30358 14.5745 4.35137 14.545C4.38087 14.5268 4.58045 14.5963 4.7947 14.6996C7.38109 15.9459 10.5699 15.5595 12.8139 13.7281C14.007 12.7543 14.7732 11.6318 15.2822 10.1123C15.4946 9.47811 15.5016 9.40678 15.4998 7.91448L15.4979 6.37213L15.2306 5.59872C14.4238 3.2646 12.7485 1.59138 10.4179 0.791905C9.65749 0.531017 9.60306 0.52369 8.28643 0.504797C7.54331 0.494077 6.84843 0.501943 6.74227 0.522225ZM9.13572 1.8697C11.7379 2.27086 13.8813 4.53743 14.1786 7.20199C14.5346 10.395 12.4991 13.1746 9.25385 13.9263C8.65541 14.0649 7.54462 14.0818 6.95838 13.9611C6.37608 13.8413 5.5359 13.5345 5.06285 13.2689L4.65735 13.0413L3.51182 13.3405L2.3662 13.6398L2.67179 12.5509L2.97738 11.462L2.66716 10.8836C2.49653 10.5654 2.25788 10.0101 2.1369 9.64962C1.93662 9.05319 1.91678 8.8968 1.91678 7.91448C1.91678 6.92953 1.93623 6.7773 2.13829 6.17933C2.26012 5.81881 2.42697 5.39158 2.50896 5.22994C3.31594 3.64047 4.82852 2.37937 6.41105 1.97674C7.39113 1.72742 8.04616 1.70166 9.13572 1.8697ZM5.03822 4.51961C4.80806 4.64462 4.48896 5.08149 4.30482 5.5236C3.99722 6.26208 4.35284 7.44344 5.2046 8.51252C5.78412 9.23982 6.71255 10.1547 7.19757 10.4764C7.72637 10.827 8.85422 11.3206 9.38773 11.4349C10.0057 11.5673 10.7007 11.4803 11.1265 11.2174C11.5835 10.9352 11.8093 10.6013 11.8774 10.1069C11.9206 9.79244 11.9049 9.68895 11.7953 9.56795C11.7207 9.48567 11.6122 9.41827 11.5541 9.41827C11.496 9.41827 11.1722 9.27946 10.8343 9.1098C9.99551 8.68858 9.87468 8.70216 9.44455 9.26635C9.25346 9.51698 9.03535 9.72311 8.95976 9.72443C8.76451 9.72774 8.00686 9.32488 7.55489 8.97746C7.16275 8.67593 6.5098 7.92705 6.31138 7.55125C6.20823 7.35584 6.21533 7.32592 6.42178 7.08855C6.81531 6.63602 6.91839 6.27835 6.74521 5.96618C6.61843 5.73784 6.27903 4.94437 6.27903 4.87643C6.27903 4.84104 6.20699 4.72058 6.11897 4.60884C5.98602 4.43995 5.89801 4.40617 5.59782 4.40872C5.39924 4.41041 5.14739 4.46031 5.03822 4.51961Z" fill="#F4F5F7"/>
<path fill-rule="evenodd" clip-rule="evenodd" d="M6.74227 0.522225C6.20931 0.62402 5.17387 0.98439 4.62145 1.26039C2.87277 2.13414 1.53614 3.63669 0.931912 5.40816C0.587641 6.4174 0.530044 6.78378 0.532129 7.95304C0.533905 8.94561 0.558766 9.15784 0.753407 9.84241C0.874083 10.2666 1.08903 10.8485 1.23109 11.1357L1.48935 11.6577L1.36721 12.0996C1.29996 12.3426 1.1999 12.715 1.1447 12.9271C1.04772 13.2999 0.855476 13.9924 0.716501 14.4695C0.538074 15.0815 0.46712 15.4378 0.514139 15.4849C0.542629 15.5133 0.71349 15.5005 0.893848 15.4566C1.7426 15.2497 4.30358 14.5745 4.35137 14.545C4.38087 14.5268 4.58045 14.5963 4.7947 14.6996C7.38109 15.9459 10.5699 15.5595 12.8139 13.7281C14.007 12.7543 14.7732 11.6318 15.2822 10.1123C15.4946 9.47811 15.5016 9.40678 15.4998 7.91448L15.4979 6.37213L15.2306 5.59872C14.4238 3.2646 12.7485 1.59138 10.4179 0.791905C9.65749 0.531017 9.60306 0.52369 8.28643 0.504797C7.54331 0.494077 6.84843 0.501943 6.74227 0.522225ZM9.13572 1.8697C11.7379 2.27086 13.8813 4.53743 14.1786 7.20199C14.5346 10.395 12.4991 13.1746 9.25385 13.9263C8.65541 14.0649 7.54462 14.0818 6.95838 13.9611C6.37608 13.8413 5.5359 13.5345 5.06285 13.2689L4.65735 13.0413L3.51182 13.3405L2.3662 13.6398L2.67179 12.5509L2.97738 11.462L2.66716 10.8836C2.49653 10.5654 2.25788 10.0101 2.1369 9.64962C1.93662 9.05319 1.91678 8.8968 1.91678 7.91448C1.91678 6.92953 1.93623 6.7773 2.13829 6.17933C2.26012 5.81881 2.42697 5.39158 2.50896 5.22994C3.31594 3.64047 4.82852 2.37937 6.41105 1.97674C7.39113 1.72742 8.04616 1.70166 9.13572 1.8697ZM5.03822 4.51961C4.80806 4.64462 4.48896 5.08149 4.30482 5.5236C3.99722 6.26208 4.35284 7.44344 5.2046 8.51252C5.78412 9.23982 6.71255 10.1547 7.19757 10.4764C7.72637 10.827 8.85422 11.3206 9.38773 11.4349C10.0057 11.5673 10.7007 11.4803 11.1265 11.2174C11.5835 10.9352 11.8093 10.6013 11.8774 10.1069C11.9206 9.79244 11.9049 9.68895 11.7953 9.56795C11.7207 9.48567 11.6122 9.41827 11.5541 9.41827C11.496 9.41827 11.1722 9.27946 10.8343 9.1098C9.99551 8.68858 9.87468 8.70216 9.44455 9.26635C9.25346 9.51698 9.03535 9.72311 8.95976 9.72443C8.76451 9.72774 8.00686 9.32488 7.55489 8.97746C7.16275 8.67593 6.5098 7.92705 6.31138 7.55125C6.20823 7.35584 6.21533 7.32592 6.42178 7.08855C6.81531 6.63602 6.91839 6.27835 6.74521 5.96618C6.61843 5.73784 6.27903 4.94437 6.27903 4.87643C6.27903 4.84104 6.20699 4.72058 6.11897 4.60884C5.98602 4.43995 5.89801 4.40617 5.59782 4.40872C5.39924 4.41041 5.14739 4.46031 5.03822 4.51961Z" fill="#F4F5F7"/>
</svg>
