<svg width="24" height="24" viewBox="0 0 24 24" fill="none" xmlns="http://www.w3.org/2000/svg">
<g id="1. Icons-24">
<path id="Vector" d="M8.62506 21.2111C6.99853 21.2111 5.61906 20.6449 4.48666 19.5125C3.35428 18.3801 2.78809 17.0006 2.78809 15.3741C2.78809 14.5958 2.93704 13.8511 3.23494 13.1399C3.53282 12.4287 3.95743 11.7966 4.50876 11.2436L11.2446 4.49363C11.797 3.95173 12.4283 3.53184 13.1387 3.23396C13.849 2.93606 14.5945 2.78711 15.3751 2.78711C17.0016 2.78711 18.3811 3.3533 19.5135 4.48568C20.6458 5.61808 21.212 6.99755 21.212 8.62408C21.212 9.40235 21.0631 10.1471 20.7652 10.8583C20.4673 11.5694 20.0474 12.2015 19.5055 12.7545L12.7555 19.4904C12.2032 20.0417 11.5718 20.4663 10.8614 20.7642C10.1511 21.0621 9.40563 21.2111 8.62506 21.2111ZM15.4359 14.0067L18.1043 11.351C18.458 10.9867 18.7343 10.5715 18.9332 10.1056C19.1321 9.63966 19.2316 9.14528 19.2316 8.62248C19.2316 7.54892 18.8575 6.63804 18.1093 5.88986C17.3611 5.14168 16.4502 4.76758 15.3767 4.76758C14.8539 4.76758 14.3595 4.86703 13.8935 5.06593C13.4276 5.26485 13.0125 5.54114 12.6481 5.89481L9.99246 8.56321L15.4359 14.0067ZM8.62506 19.2165C9.12458 19.2165 9.61286 19.1194 10.0899 18.9252C10.567 18.731 10.9877 18.457 11.352 18.1034L14.0077 15.4208L8.57831 9.99148L5.89579 12.6471C5.54212 13.0115 5.26819 13.428 5.07399 13.8967C4.87979 14.3655 4.78269 14.8579 4.78269 15.3741C4.78269 16.4487 5.15442 17.3578 5.89789 18.1013C6.64137 18.8447 7.55043 19.2165 8.62506 19.2165Z" fill="#38F8E6"/>
</g>
</svg>
