<svg width="24" height="24" viewBox="0 0 24 24" fill="none" xmlns="http://www.w3.org/2000/svg">
<g id="1. Icons-24">
<path id="Vector" d="M13.2417 20C11.747 20 10.5066 19.4653 9.52064 18.3958C8.53468 17.3264 8.04169 16.0428 8.04169 14.5452V14.0566C6.89273 13.883 5.93187 13.3547 5.15912 12.4714C4.38637 11.5882 4 10.5439 4 9.33851V4.82755H6.4938V4H7.96474V7.15712H6.4938V6.32957H5.47096V9.33243C5.47096 10.256 5.78732 11.0337 6.42005 11.6656C7.05279 12.2975 7.82126 12.6135 8.72548 12.6135C9.62969 12.6135 10.3998 12.2975 11.0357 11.6656C11.6716 11.0337 11.9896 10.256 11.9896 9.33243V6.32957H10.9563V7.15712H9.49579V4H10.9563V4.82755H13.4501V9.33851C13.4501 10.5299 13.0724 11.5654 12.317 12.445C11.5617 13.3246 10.6234 13.8547 9.50222 14.0353V14.5452C9.50222 15.6245 9.85481 16.5531 10.56 17.331C11.2652 18.109 12.1601 18.4979 13.2447 18.4979C14.2591 18.4979 15.1337 18.1134 15.8685 17.3442C16.6033 16.5751 16.9707 15.6406 16.9707 14.5408V13.1701C16.5127 13.0091 16.1368 12.7269 15.8429 12.3235C15.549 11.9201 15.402 11.4588 15.402 10.9398C15.402 10.2879 15.6244 9.73371 16.0693 9.27734C16.5141 8.82099 17.057 8.59282 17.6979 8.59282C18.3389 8.59282 18.8828 8.82099 19.3297 9.27734C19.7766 9.73371 20 10.2879 20 10.9398C20 11.4588 19.853 11.9201 19.5591 12.3235C19.2652 12.7269 18.8893 13.0091 18.4313 13.1701V14.5452C18.4313 16.0622 17.9247 17.3505 16.9114 18.4103C15.8982 19.4701 14.6749 20 13.2417 20V20ZM17.6978 11.8604C17.9511 11.8604 18.1651 11.7723 18.3399 11.5961C18.5146 11.4198 18.602 11.2024 18.602 10.9437C18.602 10.685 18.5157 10.4665 18.3431 10.288C18.1705 10.1096 17.9576 10.0204 17.7042 10.0204C17.4509 10.0204 17.2369 10.1085 17.0621 10.2847C16.8874 10.4609 16.8 10.6784 16.8 10.9371C16.8 11.1958 16.8863 11.4143 17.0589 11.5928C17.2315 11.7712 17.4444 11.8604 17.6978 11.8604Z" fill="#A2A3A3"/>
</g>
</svg>
