<svg width="20" height="20" viewBox="0 0 20 20" fill="none" xmlns="http://www.w3.org/2000/svg">
<g id="receipt_long">
<mask id="mask0_2162_17721" style="mask-type:alpha" maskUnits="userSpaceOnUse" x="0" y="0" width="20" height="20">
<rect id="Bounding box" width="20" height="20" fill="#D9D9D9"/>
</mask>
<g mask="url(#mask0_2162_17721)">
<path id="receipt_long_2" d="M5 18.3307C4.30556 18.3307 3.71528 18.0877 3.22917 17.6016C2.74306 17.1155 2.5 16.5252 2.5 15.8307V13.3307H5V1.66406L6.25 2.91406L7.5 1.66406L8.75 2.91406L10 1.66406L11.25 2.91406L12.5 1.66406L13.75 2.91406L15 1.66406L16.25 2.91406L17.5 1.66406V15.8307C17.5 16.5252 17.2569 17.1155 16.7708 17.6016C16.2847 18.0877 15.6944 18.3307 15 18.3307H5ZM15 16.6641C15.2361 16.6641 15.434 16.5842 15.5938 16.4245C15.7535 16.2648 15.8333 16.0668 15.8333 15.8307V4.16406H6.66667V13.3307H14.1667V15.8307C14.1667 16.0668 14.2465 16.2648 14.4062 16.4245C14.566 16.5842 14.7639 16.6641 15 16.6641ZM7.5 7.4974V5.83073H12.5V7.4974H7.5ZM7.5 9.9974V8.33073H12.5V9.9974H7.5ZM14.1667 7.4974C13.9306 7.4974 13.7326 7.41753 13.5729 7.25781C13.4132 7.09809 13.3333 6.90017 13.3333 6.66406C13.3333 6.42795 13.4132 6.23003 13.5729 6.07031C13.7326 5.91059 13.9306 5.83073 14.1667 5.83073C14.4028 5.83073 14.6007 5.91059 14.7604 6.07031C14.9201 6.23003 15 6.42795 15 6.66406C15 6.90017 14.9201 7.09809 14.7604 7.25781C14.6007 7.41753 14.4028 7.4974 14.1667 7.4974ZM14.1667 9.9974C13.9306 9.9974 13.7326 9.91753 13.5729 9.75781C13.4132 9.59809 13.3333 9.40017 13.3333 9.16406C13.3333 8.92795 13.4132 8.73003 13.5729 8.57031C13.7326 8.41059 13.9306 8.33073 14.1667 8.33073C14.4028 8.33073 14.6007 8.41059 14.7604 8.57031C14.9201 8.73003 15 8.92795 15 9.16406C15 9.40017 14.9201 9.59809 14.7604 9.75781C14.6007 9.91753 14.4028 9.9974 14.1667 9.9974ZM5 16.6641H12.5V14.9974H4.16667V15.8307C4.16667 16.0668 4.24653 16.2648 4.40625 16.4245C4.56597 16.5842 4.76389 16.6641 5 16.6641Z" fill="#38F8E6"/>
</g>
</g>
</svg>
