<svg width="24" height="24" viewBox="0 0 24 24" fill="none" xmlns="http://www.w3.org/2000/svg">
<g id="1. Icons-24">
<path id="Vector" d="M5.79347 11.896C5.28882 11.896 4.86375 11.7238 4.51824 11.3794C4.17275 11.0351 4 10.6135 4 10.1148C4 9.61608 4.17341 9.19501 4.52023 8.85163C4.86704 8.50824 5.29161 8.33655 5.79391 8.33655C6.30231 8.33655 6.72915 8.50734 7.07443 8.84892C7.41971 9.1905 7.59236 9.61205 7.59236 10.1136C7.59236 10.6151 7.41946 11.0375 7.07367 11.3809C6.72788 11.7243 6.30115 11.896 5.79347 11.896ZM9.49987 8.54867C8.99804 8.54867 8.57438 8.37748 8.22889 8.03511C7.88338 7.69274 7.71063 7.27364 7.71063 6.7778C7.71063 6.28195 7.88392 5.86169 8.23051 5.51702C8.5771 5.17234 9.00136 5 9.50331 5C10.0053 5 10.4307 5.17079 10.7796 5.51237C11.1285 5.85396 11.303 6.2755 11.303 6.77702C11.303 7.27551 11.1287 7.69541 10.7801 8.03671C10.4315 8.37802 10.0048 8.54867 9.49987 8.54867ZM14.4955 8.54867C13.9943 8.54867 13.5693 8.37736 13.2204 8.03475C12.8715 7.69215 12.697 7.27276 12.697 6.77658C12.697 6.27437 12.8713 5.85272 13.2199 5.51163C13.5685 5.17054 13.9952 5 14.5001 5C15.002 5 15.4274 5.1723 15.7766 5.51689C16.1257 5.8615 16.3003 6.28333 16.3003 6.78239C16.3003 7.27846 16.1248 7.69685 15.7737 8.03757C15.4227 8.3783 14.9966 8.54867 14.4955 8.54867ZM18.2061 11.896C17.6977 11.896 17.2709 11.7237 16.9256 11.3791C16.5803 11.0345 16.4076 10.6127 16.4076 10.1136C16.4076 9.60849 16.5805 9.18604 16.9263 8.84624C17.2721 8.50644 17.6989 8.33655 18.2065 8.33655C18.7112 8.33655 19.1363 8.50873 19.4818 8.8531C19.8273 9.19746 20 9.61901 20 10.1177C20 10.6165 19.8266 11.0375 19.4798 11.3809C19.133 11.7243 18.7084 11.896 18.2061 11.896ZM7.79534 20C7.22611 20 6.75878 19.7909 6.39337 19.3726C6.02795 18.9543 5.84525 18.4558 5.84525 17.8772C5.84525 17.326 6.01831 16.8385 6.36443 16.4149C6.71055 15.9912 7.0701 15.5784 7.44306 15.1765C7.71873 14.8747 7.98238 14.5682 8.234 14.2569C8.48564 13.9457 8.72804 13.6177 8.96121 13.273C9.34384 12.7016 9.77303 12.1704 10.2488 11.6795C10.7245 11.1886 11.308 10.9432 11.9991 10.9432C12.6903 10.9432 13.277 11.1897 13.7593 11.6829C14.2417 12.1761 14.6782 12.7125 15.069 13.2921C15.2962 13.6239 15.531 13.9473 15.7734 14.2622C16.0157 14.5771 16.2769 14.8815 16.5569 15.1754C16.9299 15.578 17.2894 15.9912 17.6356 16.4149C17.9817 16.8385 18.1548 17.326 18.1548 17.8772C18.1548 18.4558 17.972 18.9543 17.6066 19.3726C17.2412 19.7909 16.7739 20 16.2047 20C15.492 20 14.7913 19.941 14.1023 19.8231C13.4134 19.7052 12.7126 19.6462 12 19.6462C11.2874 19.6462 10.5866 19.7052 9.89768 19.8231C9.20875 19.941 8.50797 20 7.79534 20V20Z" fill="#F4F5F7"/>
</g>
</svg>
