<svg width="16" height="16" viewBox="0 0 16 16" fill="none" xmlns="http://www.w3.org/2000/svg">
<g id="Icons16">
<path id="Vector" d="M7.44645 11.4369H8.65372V7.33331H7.44645V11.4369ZM8.00062 6.2413C8.19664 6.2413 8.36077 6.17664 8.49302 6.04733C8.62527 5.91802 8.6914 5.75779 8.6914 5.56665C8.6914 5.35899 8.62518 5.18908 8.49273 5.05691C8.36029 4.92475 8.19617 4.85866 8.00038 4.85866C7.79753 4.85866 7.63154 4.92475 7.50243 5.05691C7.37332 5.18908 7.30877 5.35742 7.30877 5.56193C7.30877 5.75701 7.37507 5.919 7.50768 6.04791C7.64028 6.17683 7.80459 6.2413 8.00062 6.2413ZM8.00582 14.9022C7.04801 14.9022 6.15075 14.7222 5.31405 14.3622C4.47736 14.0023 3.74547 13.5088 3.11837 12.8817C2.49128 12.2546 1.99776 11.5227 1.63782 10.6861C1.27787 9.84941 1.0979 8.9517 1.0979 7.99295C1.0979 7.03419 1.27787 6.13605 1.63782 5.29853C1.99776 4.46101 2.49079 3.73131 3.1169 3.10945C3.743 2.48758 4.47461 1.99527 5.31173 1.63251C6.14884 1.26976 7.04704 1.08838 8.00633 1.08838C8.96561 1.08838 9.86438 1.26951 10.7026 1.63178C11.5409 1.99405 12.2707 2.4857 12.8921 3.10673C13.5135 3.72776 14.0055 4.45805 14.368 5.2976C14.7304 6.13714 14.9117 7.03646 14.9117 7.99555C14.9117 8.95422 14.7303 9.85186 14.3675 10.6885C14.0048 11.5251 13.5125 12.2555 12.8906 12.8798C12.2687 13.5041 11.5386 13.9972 10.7002 14.3592C9.86175 14.7212 8.96363 14.9022 8.00582 14.9022V14.9022ZM8.00842 13.5819C9.55552 13.5819 10.8712 13.0389 11.9555 11.953C13.0398 10.8671 13.582 9.54663 13.582 7.99165C13.582 6.44455 13.0409 5.12885 11.9586 4.04455C10.8764 2.96025 9.55533 2.41809 7.99537 2.41809C6.45069 2.41809 5.13499 2.95921 4.04827 4.04143C2.96156 5.12364 2.4182 6.44473 2.4182 8.0047C2.4182 9.54937 2.96116 10.8651 4.04707 11.9518C5.13298 13.0385 6.45343 13.5819 8.00842 13.5819Z" fill="#6B7E7D"/>
</g>
</svg>
