<svg width="24" height="24" viewBox="0 0 24 24" fill="none" xmlns="http://www.w3.org/2000/svg">
<path d="M7.40554 18.0795C5.75989 18.0795 4.36358 17.4996 3.21659 16.3398C2.06959 15.1799 1.49609 13.776 1.49609 12.1278C1.49609 10.4796 2.06532 9.0747 3.20377 7.91299C4.3422 6.75127 5.73169 6.17041 7.37222 6.17041H18.2273C19.4094 6.17041 20.4146 6.58966 21.2429 7.42816C22.0712 8.26666 22.4853 9.27524 22.4853 10.4539C22.4853 11.6326 22.0712 12.6398 21.2429 13.4755C20.4146 14.3113 19.4094 14.7291 18.2273 14.7291H8.38309C7.65531 14.7291 7.03695 14.4774 6.52802 13.9741C6.01907 13.4707 5.76459 12.8551 5.76459 12.1273C5.76459 11.3995 6.02305 10.7839 6.53997 10.2806C7.05687 9.77718 7.68235 9.52549 8.41642 9.52549H17.4697C17.6858 9.52549 17.866 9.59774 18.0105 9.74226C18.155 9.88676 18.2273 10.067 18.2273 10.2831C18.2273 10.4992 18.155 10.6795 18.0105 10.824C17.866 10.9685 17.6858 11.0407 17.4697 11.0407H8.39974C8.09866 11.0407 7.83909 11.1456 7.62104 11.3554C7.40298 11.5652 7.29394 11.8228 7.29394 12.1281C7.29394 12.4334 7.40019 12.6883 7.61269 12.8929C7.82521 13.0975 8.08201 13.1998 8.38309 13.1998H18.2312C18.9968 13.1998 19.6431 12.9331 20.1701 12.3998C20.6971 11.8665 20.9606 11.2164 20.9606 10.4498C20.9606 9.68938 20.6968 9.04095 20.169 8.50449C19.6412 7.968 18.994 7.69976 18.2273 7.69976H7.34212C6.13095 7.69976 5.10872 8.13223 4.27542 8.99716C3.44212 9.86208 3.02547 10.9051 3.02547 12.1261C3.02547 13.3583 3.44735 14.4021 4.29112 15.2576C5.1349 16.113 6.16749 16.5407 7.38889 16.5407H17.4697C17.6858 16.5407 17.866 16.6152 18.0105 16.7642C18.155 16.9131 18.2273 17.095 18.2273 17.3097C18.2273 17.5198 18.155 17.7006 18.0105 17.8522C17.866 18.0037 17.6858 18.0795 17.4697 18.0795H7.40554Z" fill="#6B7E7D"/>
</svg>
