<svg width="20" height="20" viewBox="0 0 20 20" fill="none" xmlns="http://www.w3.org/2000/svg">
<g id="calendar_today">
<mask id="mask0_691_11478" style="mask-type:alpha" maskUnits="userSpaceOnUse" x="0" y="0" width="20" height="20">
<rect id="Bounding box" width="20" height="20" fill="#D9D9D9"/>
</mask>
<g mask="url(#mask0_691_11478)">
<path id="calendar_today_2" d="M4.16667 18.3346C3.70833 18.3346 3.31597 18.1714 2.98958 17.8451C2.66319 17.5187 2.5 17.1263 2.5 16.668V5.0013C2.5 4.54297 2.66319 4.15061 2.98958 3.82422C3.31597 3.49783 3.70833 3.33464 4.16667 3.33464H5V1.66797H6.66667V3.33464H13.3333V1.66797H15V3.33464H15.8333C16.2917 3.33464 16.684 3.49783 17.0104 3.82422C17.3368 4.15061 17.5 4.54297 17.5 5.0013V16.668C17.5 17.1263 17.3368 17.5187 17.0104 17.8451C16.684 18.1714 16.2917 18.3346 15.8333 18.3346H4.16667ZM4.16667 16.668H15.8333V8.33464H4.16667V16.668ZM4.16667 6.66797H15.8333V5.0013H4.16667V6.66797Z" fill="#A2A3A3"/>
</g>
</g>
</svg>
