<svg width="23" height="22" viewBox="0 0 23 22" fill="none" xmlns="http://www.w3.org/2000/svg">
<g id="1. Icons-24">
<path id="Vector" d="M13.1667 11.9165C12.4028 11.9165 11.7535 11.6491 11.2188 11.1144C10.684 10.5797 10.4167 9.93039 10.4167 9.1665C10.4167 8.40262 10.684 7.75331 11.2188 7.21859C11.7535 6.68387 12.4028 6.4165 13.1667 6.4165C13.9306 6.4165 14.5799 6.68387 15.1146 7.21859C15.6493 7.75331 15.9167 8.40262 15.9167 9.1665C15.9167 9.93039 15.6493 10.5797 15.1146 11.1144C14.5799 11.6491 13.9306 11.9165 13.1667 11.9165ZM6.75 14.6665C6.24583 14.6665 5.81424 14.487 5.45521 14.128C5.09618 13.7689 4.91667 13.3373 4.91667 12.8332V5.49984C4.91667 4.99567 5.09618 4.56407 5.45521 4.20505C5.81424 3.84602 6.24583 3.6665 6.75 3.6665H19.5833C20.0875 3.6665 20.5191 3.84602 20.8781 4.20505C21.2372 4.56407 21.4167 4.99567 21.4167 5.49984V12.8332C21.4167 13.3373 21.2372 13.7689 20.8781 14.128C20.5191 14.487 20.0875 14.6665 19.5833 14.6665H6.75ZM8.58333 12.8332H17.75C17.75 12.329 17.9295 11.8974 18.2885 11.5384C18.6476 11.1794 19.0792 10.9998 19.5833 10.9998V7.33317C19.0792 7.33317 18.6476 7.15366 18.2885 6.79463C17.9295 6.4356 17.75 6.004 17.75 5.49984H8.58333C8.58333 6.004 8.40382 6.4356 8.04479 6.79463C7.68576 7.15366 7.25417 7.33317 6.75 7.33317V10.9998C7.25417 10.9998 7.68576 11.1794 8.04479 11.5384C8.40382 11.8974 8.58333 12.329 8.58333 12.8332ZM18.6667 18.3332H3.08333C2.57917 18.3332 2.14757 18.1537 1.78854 17.7946C1.42951 17.4356 1.25 17.004 1.25 16.4998V6.4165H3.08333V16.4998H18.6667V18.3332Z" fill="#35BEB1"/>
</g>
</svg>
