<svg width="22" height="22" viewBox="0 0 22 22" fill="none" xmlns="http://www.w3.org/2000/svg">
<g id="credit_card">
<mask id="mask0_651_9614" style="mask-type:alpha" maskUnits="userSpaceOnUse" x="0" y="0" width="22" height="22">
<rect id="Bounding box" width="22" height="22" fill="#D9D9D9"/>
</mask>
<g mask="url(#mask0_651_9614)">
<path id="credit_card_2" d="M20.1663 5.49984V16.4998C20.1663 17.004 19.9868 17.4356 19.6278 17.7946C19.2688 18.1537 18.8372 18.3332 18.333 18.3332H3.66634C3.16217 18.3332 2.73058 18.1537 2.37155 17.7946C2.01252 17.4356 1.83301 17.004 1.83301 16.4998V5.49984C1.83301 4.99567 2.01252 4.56407 2.37155 4.20505C2.73058 3.84602 3.16217 3.6665 3.66634 3.6665H18.333C18.8372 3.6665 19.2688 3.84602 19.6278 4.20505C19.9868 4.56407 20.1663 4.99567 20.1663 5.49984ZM3.66634 7.33317H18.333V5.49984H3.66634V7.33317ZM3.66634 10.9998V16.4998H18.333V10.9998H3.66634Z" fill="#35BEB1"/>
</g>
</g>
</svg>
