<svg width="16" height="18" viewBox="0 0 16 18" fill="none" xmlns="http://www.w3.org/2000/svg">
<path d="M3 17.3317C2.30556 17.3317 1.71528 17.0886 1.22917 16.6025C0.743056 16.1164 0.5 15.5261 0.5 14.8317V12.3317H3V0.665039L4.25 1.91504L5.5 0.665039L6.75 1.91504L8 0.665039L9.25 1.91504L10.5 0.665039L11.75 1.91504L13 0.665039L14.25 1.91504L15.5 0.665039V14.8317C15.5 15.5261 15.2569 16.1164 14.7708 16.6025C14.2847 17.0886 13.6944 17.3317 13 17.3317H3ZM13 15.665C13.2361 15.665 13.434 15.5852 13.5938 15.4255C13.7535 15.2657 13.8333 15.0678 13.8333 14.8317V3.16504H4.66667V12.3317H12.1667V14.8317C12.1667 15.0678 12.2465 15.2657 12.4062 15.4255C12.566 15.5852 12.7639 15.665 13 15.665ZM5.5 6.49837V4.83171H10.5V6.49837H5.5ZM5.5 8.99837V7.33171H10.5V8.99837H5.5ZM12.1667 6.49837C11.9306 6.49837 11.7326 6.41851 11.5729 6.25879C11.4132 6.09907 11.3333 5.90115 11.3333 5.66504C11.3333 5.42893 11.4132 5.23101 11.5729 5.07129C11.7326 4.91157 11.9306 4.83171 12.1667 4.83171C12.4028 4.83171 12.6007 4.91157 12.7604 5.07129C12.9201 5.23101 13 5.42893 13 5.66504C13 5.90115 12.9201 6.09907 12.7604 6.25879C12.6007 6.41851 12.4028 6.49837 12.1667 6.49837ZM12.1667 8.99837C11.9306 8.99837 11.7326 8.91851 11.5729 8.75879C11.4132 8.59907 11.3333 8.40115 11.3333 8.16504C11.3333 7.92893 11.4132 7.73101 11.5729 7.57129C11.7326 7.41157 11.9306 7.33171 12.1667 7.33171C12.4028 7.33171 12.6007 7.41157 12.7604 7.57129C12.9201 7.73101 13 7.92893 13 8.16504C13 8.40115 12.9201 8.59907 12.7604 8.75879C12.6007 8.91851 12.4028 8.99837 12.1667 8.99837ZM3 15.665H10.5V13.9984H2.16667V14.8317C2.16667 15.0678 2.24653 15.2657 2.40625 15.4255C2.56597 15.5852 2.76389 15.665 3 15.665Z" fill="#38F8E6"/>
</svg>
