<svg width="16" height="16" viewBox="0 0 16 16" fill="none" xmlns="http://www.w3.org/2000/svg">
<mask id="mask0_282_16951" style="mask-type:alpha" maskUnits="userSpaceOnUse" x="0" y="0" width="16" height="16">
<rect width="16" height="16" fill="#D9D9D9"/>
</mask>
<g mask="url(#mask0_282_16951)">
<path d="M8.00033 13.3333C7.63366 13.3333 7.31977 13.2027 7.05866 12.9416C6.79755 12.6805 6.66699 12.3666 6.66699 12C6.66699 11.6333 6.79755 11.3194 7.05866 11.0583C7.31977 10.7972 7.63366 10.6666 8.00033 10.6666C8.36699 10.6666 8.68088 10.7972 8.94199 11.0583C9.2031 11.3194 9.33366 11.6333 9.33366 12C9.33366 12.3666 9.2031 12.6805 8.94199 12.9416C8.68088 13.2027 8.36699 13.3333 8.00033 13.3333ZM8.00033 9.33329C7.63366 9.33329 7.31977 9.20274 7.05866 8.94163C6.79755 8.68052 6.66699 8.36663 6.66699 7.99996C6.66699 7.63329 6.79755 7.3194 7.05866 7.05829C7.31977 6.79718 7.63366 6.66663 8.00033 6.66663C8.36699 6.66663 8.68088 6.79718 8.94199 7.05829C9.2031 7.3194 9.33366 7.63329 9.33366 7.99996C9.33366 8.36663 9.2031 8.68052 8.94199 8.94163C8.68088 9.20274 8.36699 9.33329 8.00033 9.33329ZM8.00033 5.33329C7.63366 5.33329 7.31977 5.20274 7.05866 4.94163C6.79755 4.68052 6.66699 4.36663 6.66699 3.99996C6.66699 3.63329 6.79755 3.3194 7.05866 3.05829C7.31977 2.79718 7.63366 2.66663 8.00033 2.66663C8.36699 2.66663 8.68088 2.79718 8.94199 3.05829C9.2031 3.3194 9.33366 3.63329 9.33366 3.99996C9.33366 4.36663 9.2031 4.68052 8.94199 4.94163C8.68088 5.20274 8.36699 5.33329 8.00033 5.33329Z" fill="#A2A3A3"/>
</g>
</svg>