<svg width="28" height="28" viewBox="0 0 28 28" fill="none" xmlns="http://www.w3.org/2000/svg">
<g id="1. Icons-24">
<mask id="mask0_4246_17469" style="mask-type:alpha" maskUnits="userSpaceOnUse" x="0" y="0" width="28" height="28">
<rect id="Bounding box" x="0.5" y="0.5" width="27" height="27" fill="#D9D9D9"/>
</mask>
<g mask="url(#mask0_4246_17469)">
<path id="account_circle" d="M7.08125 19.7375C8.0375 19.0063 9.10625 18.4297 10.2875 18.0078C11.4688 17.5859 12.7063 17.375 14 17.375C15.2938 17.375 16.5313 17.5859 17.7125 18.0078C18.8938 18.4297 19.9625 19.0063 20.9188 19.7375C21.575 18.9688 22.0859 18.0969 22.4516 17.1219C22.8172 16.1469 23 15.1063 23 14C23 11.5063 22.1234 9.38281 20.3703 7.62969C18.6172 5.87656 16.4938 5 14 5C11.5063 5 9.38281 5.87656 7.62969 7.62969C5.87656 9.38281 5 11.5063 5 14C5 15.1063 5.18281 16.1469 5.54844 17.1219C5.91406 18.0969 6.425 18.9688 7.08125 19.7375ZM14 15.125C12.8938 15.125 11.9609 14.7453 11.2016 13.9859C10.4422 13.2266 10.0625 12.2938 10.0625 11.1875C10.0625 10.0813 10.4422 9.14844 11.2016 8.38906C11.9609 7.62969 12.8938 7.25 14 7.25C15.1063 7.25 16.0391 7.62969 16.7984 8.38906C17.5578 9.14844 17.9375 10.0813 17.9375 11.1875C17.9375 12.2938 17.5578 13.2266 16.7984 13.9859C16.0391 14.7453 15.1063 15.125 14 15.125ZM14 25.25C12.4438 25.25 10.9813 24.9547 9.6125 24.3641C8.24375 23.7734 7.05313 22.9719 6.04063 21.9594C5.02813 20.9469 4.22656 19.7563 3.63594 18.3875C3.04531 17.0188 2.75 15.5563 2.75 14C2.75 12.4438 3.04531 10.9813 3.63594 9.6125C4.22656 8.24375 5.02813 7.05313 6.04063 6.04063C7.05313 5.02813 8.24375 4.22656 9.6125 3.63594C10.9813 3.04531 12.4438 2.75 14 2.75C15.5563 2.75 17.0188 3.04531 18.3875 3.63594C19.7563 4.22656 20.9469 5.02813 21.9594 6.04063C22.9719 7.05313 23.7734 8.24375 24.3641 9.6125C24.9547 10.9813 25.25 12.4438 25.25 14C25.25 15.5563 24.9547 17.0188 24.3641 18.3875C23.7734 19.7563 22.9719 20.9469 21.9594 21.9594C20.9469 22.9719 19.7563 23.7734 18.3875 24.3641C17.0188 24.9547 15.5563 25.25 14 25.25ZM14 23C14.9938 23 15.9313 22.8547 16.8125 22.5641C17.6938 22.2734 18.5 21.8563 19.2313 21.3125C18.5 20.7688 17.6938 20.3516 16.8125 20.0609C15.9313 19.7703 14.9938 19.625 14 19.625C13.0063 19.625 12.0688 19.7703 11.1875 20.0609C10.3063 20.3516 9.5 20.7688 8.76875 21.3125C9.5 21.8563 10.3063 22.2734 11.1875 22.5641C12.0688 22.8547 13.0063 23 14 23ZM14 12.875C14.4875 12.875 14.8906 12.7156 15.2094 12.3969C15.5281 12.0781 15.6875 11.675 15.6875 11.1875C15.6875 10.7 15.5281 10.2969 15.2094 9.97813C14.8906 9.65938 14.4875 9.5 14 9.5C13.5125 9.5 13.1094 9.65938 12.7906 9.97813C12.4719 10.2969 12.3125 10.7 12.3125 11.1875C12.3125 11.675 12.4719 12.0781 12.7906 12.3969C13.1094 12.7156 13.5125 12.875 14 12.875Z" fill="white"/>
</g>
</g>
</svg>
