<svg width="20" height="20" viewBox="0 0 20 20" fill="none" xmlns="http://www.w3.org/2000/svg">
<g id="request_quote">
<mask id="mask0_585_10740" style="mask-type:alpha" maskUnits="userSpaceOnUse" x="0" y="0" width="20" height="20">
<rect id="Bounding box" width="20" height="20" fill="#D9D9D9"/>
</mask>
<g mask="url(#mask0_585_10740)">
<path id="request_quote_2" d="M9.16634 15.8333H10.833V15H11.6663C11.9025 15 12.1004 14.9201 12.2601 14.7604C12.4198 14.6007 12.4997 14.4027 12.4997 14.1666V11.6666C12.4997 11.4305 12.4198 11.2326 12.2601 11.0729C12.1004 10.9132 11.9025 10.8333 11.6663 10.8333H9.16634V9.99996H12.4997V8.33329H10.833V7.49996H9.16634V8.33329H8.33301C8.0969 8.33329 7.89898 8.41315 7.73926 8.57288C7.57954 8.7326 7.49967 8.93051 7.49967 9.16663V11.6666C7.49967 11.9027 7.57954 12.1007 7.73926 12.2604C7.89898 12.4201 8.0969 12.5 8.33301 12.5H10.833V13.3333H7.49967V15H9.16634V15.8333ZM4.99967 18.3333C4.54134 18.3333 4.14898 18.1701 3.82259 17.8437C3.4962 17.5173 3.33301 17.125 3.33301 16.6666V3.33329C3.33301 2.87496 3.4962 2.4826 3.82259 2.15621C4.14898 1.82982 4.54134 1.66663 4.99967 1.66663H11.6663L16.6663 6.66663V16.6666C16.6663 17.125 16.5031 17.5173 16.1768 17.8437C15.8504 18.1701 15.458 18.3333 14.9997 18.3333H4.99967ZM10.833 6.66663V3.33329H4.99967V16.6666H14.9997V6.66663H10.833Z" fill="#38F8E6"/>
</g>
</g>
</svg>
