<svg width="18" height="18" viewBox="0 0 18 18" fill="none" xmlns="http://www.w3.org/2000/svg">
<path d="M3.83333 5.5H12.1667V3.83333H3.83333V5.5ZM3.83333 8.83333H7.79167C8.06944 8.5 8.37153 8.19097 8.69792 7.90625C9.02431 7.62153 9.38194 7.375 9.77083 7.16667H3.83333V8.83333ZM3.83333 12.1667H6.375C6.40278 11.875 6.45486 11.5903 6.53125 11.3125C6.60764 11.0347 6.70139 10.7639 6.8125 10.5H3.83333V12.1667ZM2.16667 15.5C1.70833 15.5 1.31597 15.3368 0.989583 15.0104C0.663194 14.684 0.5 14.2917 0.5 13.8333V2.16667C0.5 1.70833 0.663194 1.31597 0.989583 0.989583C1.31597 0.663194 1.70833 0.5 2.16667 0.5H13.8333C14.2917 0.5 14.684 0.663194 15.0104 0.989583C15.3368 1.31597 15.5 1.70833 15.5 2.16667V6.8125C15.2361 6.70139 14.9653 6.60764 14.6875 6.53125C14.4097 6.45486 14.125 6.40278 13.8333 6.375V2.16667H2.16667V13.8333H6.375C6.40278 14.125 6.45486 14.4097 6.53125 14.6875C6.60764 14.9653 6.70139 15.2361 6.8125 15.5H2.16667ZM13 17.1667C11.9861 17.1667 11.1007 16.8507 10.3438 16.2188C9.58681 15.5868 9.11111 14.7917 8.91667 13.8333H10.2083C10.3889 14.4444 10.7326 14.9444 11.2396 15.3333C11.7465 15.7222 12.3333 15.9167 13 15.9167C13.8056 15.9167 14.4931 15.6319 15.0625 15.0625C15.6319 14.4931 15.9167 13.8056 15.9167 13C15.9167 12.1944 15.6319 11.5069 15.0625 10.9375C14.4931 10.3681 13.8056 10.0833 13 10.0833C12.5972 10.0833 12.2222 10.1562 11.875 10.3021C11.5278 10.4479 11.2222 10.6528 10.9583 10.9167H12.1667V12.1667H8.83333V8.83333H10.0833V10.0208C10.4583 9.65972 10.8958 9.37153 11.3958 9.15625C11.8958 8.94097 12.4306 8.83333 13 8.83333C14.1528 8.83333 15.1354 9.23958 15.9479 10.0521C16.7604 10.8646 17.1667 11.8472 17.1667 13C17.1667 14.1528 16.7604 15.1354 15.9479 15.9479C15.1354 16.7604 14.1528 17.1667 13 17.1667Z" fill="#38F8E6"/>
</svg>
