<svg width="19" height="18" viewBox="0 0 19 18" fill="none" xmlns="http://www.w3.org/2000/svg">
<path d="M16.7516 17.6966L10.6643 11.6093C10.1811 11.9958 9.62554 12.3018 8.99748 12.5272C8.36942 12.7527 7.7011 12.8654 6.99252 12.8654C5.23717 12.8654 3.75157 12.2575 2.53571 11.0416C1.31984 9.82576 0.711914 8.34015 0.711914 6.58481C0.711914 4.82946 1.31984 3.34385 2.53571 2.12799C3.75157 0.91213 5.23717 0.304199 6.99252 0.304199C8.74787 0.304199 10.2335 0.91213 11.4493 2.12799C12.6652 3.34385 13.2731 4.82946 13.2731 6.58481C13.2731 7.29339 13.1604 7.96171 12.9349 8.58977C12.7095 9.21783 12.4035 9.77342 12.017 10.2565L18.1044 16.3439L16.7516 17.6966ZM6.99252 10.9329C8.20033 10.9329 9.22697 10.5102 10.0724 9.66472C10.9179 8.81925 11.3406 7.79261 11.3406 6.58481C11.3406 5.377 10.9179 4.35036 10.0724 3.50489C9.22697 2.65943 8.20033 2.23669 6.99252 2.23669C5.78471 2.23669 4.75807 2.65943 3.91261 3.50489C3.06714 4.35036 2.64441 5.377 2.64441 6.58481C2.64441 7.79261 3.06714 8.81925 3.91261 9.66472C4.75807 10.5102 5.78471 10.9329 6.99252 10.9329Z" fill="#A2A3A3"/>
</svg>
