<svg width="16" height="16" viewBox="0 0 16 16" fill="none" xmlns="http://www.w3.org/2000/svg">
<g id="sell">
<mask id="mask0_691_11606" style="mask-type:alpha" maskUnits="userSpaceOnUse" x="0" y="0" width="16" height="16">
<rect id="Bounding box" width="16" height="16" fill="#D9D9D9"/>
</mask>
<g mask="url(#mask0_691_11606)">
<path id="sell_2" d="M9.49967 14.2668C9.24412 14.5224 8.92745 14.6502 8.54967 14.6502C8.1719 14.6502 7.85523 14.5224 7.59967 14.2668L1.73301 8.40016C1.61079 8.27794 1.51356 8.1335 1.44134 7.96683C1.36912 7.80016 1.33301 7.62239 1.33301 7.4335V2.66683C1.33301 2.30016 1.46356 1.98627 1.72467 1.72516C1.98579 1.46405 2.29967 1.3335 2.66634 1.3335H7.43301C7.6219 1.3335 7.79967 1.36961 7.96634 1.44183C8.13301 1.51405 8.27745 1.61127 8.39967 1.7335L14.2663 7.61683C14.5219 7.87238 14.6497 8.18627 14.6497 8.5585C14.6497 8.93072 14.5219 9.24461 14.2663 9.50016L9.49967 14.2668ZM8.54967 13.3335L13.3163 8.56683L7.43301 2.66683H2.66634V7.4335L8.54967 13.3335ZM4.33301 5.3335C4.61079 5.3335 4.8469 5.23627 5.04134 5.04183C5.23579 4.84738 5.33301 4.61127 5.33301 4.3335C5.33301 4.05572 5.23579 3.81961 5.04134 3.62516C4.8469 3.43072 4.61079 3.3335 4.33301 3.3335C4.05523 3.3335 3.81912 3.43072 3.62467 3.62516C3.43023 3.81961 3.33301 4.05572 3.33301 4.3335C3.33301 4.61127 3.43023 4.84738 3.62467 5.04183C3.81912 5.23627 4.05523 5.3335 4.33301 5.3335Z" fill="#A2A3A3"/>
</g>
</g>
</svg>
