<svg width="18" height="18" viewBox="0 0 18 18" fill="none" xmlns="http://www.w3.org/2000/svg">
<g id="share">
<mask id="mask0_691_11661" style="mask-type:alpha" maskUnits="userSpaceOnUse" x="0" y="0" width="18" height="18">
<rect id="Bounding box" width="18" height="18" fill="#D9D9D9"/>
</mask>
<g mask="url(#mask0_691_11661)">
<path id="share_2" d="M13.5 16.501C12.875 16.501 12.3438 16.2822 11.9062 15.8447C11.4688 15.4072 11.25 14.876 11.25 14.251C11.25 14.1635 11.2563 14.0729 11.2688 13.9791C11.2812 13.8854 11.3 13.801 11.325 13.726L6.0375 10.651C5.825 10.8385 5.5875 10.9854 5.325 11.0916C5.0625 11.1979 4.7875 11.251 4.5 11.251C3.875 11.251 3.34375 11.0322 2.90625 10.5947C2.46875 10.1572 2.25 9.62598 2.25 9.00098C2.25 8.37598 2.46875 7.84473 2.90625 7.40723C3.34375 6.96973 3.875 6.75098 4.5 6.75098C4.7875 6.75098 5.0625 6.8041 5.325 6.91035C5.5875 7.0166 5.825 7.16348 6.0375 7.35098L11.325 4.27598C11.3 4.20098 11.2812 4.1166 11.2688 4.02285C11.2563 3.9291 11.25 3.83848 11.25 3.75098C11.25 3.12598 11.4688 2.59473 11.9062 2.15723C12.3438 1.71973 12.875 1.50098 13.5 1.50098C14.125 1.50098 14.6562 1.71973 15.0938 2.15723C15.5312 2.59473 15.75 3.12598 15.75 3.75098C15.75 4.37598 15.5312 4.90723 15.0938 5.34473C14.6562 5.78223 14.125 6.00098 13.5 6.00098C13.2125 6.00098 12.9375 5.94785 12.675 5.8416C12.4125 5.73535 12.175 5.58848 11.9625 5.40098L6.675 8.47598C6.7 8.55098 6.71875 8.63535 6.73125 8.7291C6.74375 8.82285 6.75 8.91348 6.75 9.00098C6.75 9.08848 6.74375 9.1791 6.73125 9.27285C6.71875 9.3666 6.7 9.45098 6.675 9.52598L11.9625 12.601C12.175 12.4135 12.4125 12.2666 12.675 12.1604C12.9375 12.0541 13.2125 12.001 13.5 12.001C14.125 12.001 14.6562 12.2197 15.0938 12.6572C15.5312 13.0947 15.75 13.626 15.75 14.251C15.75 14.876 15.5312 15.4072 15.0938 15.8447C14.6562 16.2822 14.125 16.501 13.5 16.501ZM13.5 4.50098C13.7125 4.50098 13.8906 4.4291 14.0344 4.28535C14.1781 4.1416 14.25 3.96348 14.25 3.75098C14.25 3.53848 14.1781 3.36035 14.0344 3.2166C13.8906 3.07285 13.7125 3.00098 13.5 3.00098C13.2875 3.00098 13.1094 3.07285 12.9656 3.2166C12.8219 3.36035 12.75 3.53848 12.75 3.75098C12.75 3.96348 12.8219 4.1416 12.9656 4.28535C13.1094 4.4291 13.2875 4.50098 13.5 4.50098ZM4.5 9.75098C4.7125 9.75098 4.89062 9.6791 5.03438 9.53535C5.17813 9.3916 5.25 9.21348 5.25 9.00098C5.25 8.78848 5.17813 8.61035 5.03438 8.4666C4.89062 8.32285 4.7125 8.25098 4.5 8.25098C4.2875 8.25098 4.10938 8.32285 3.96563 8.4666C3.82188 8.61035 3.75 8.78848 3.75 9.00098C3.75 9.21348 3.82188 9.3916 3.96563 9.53535C4.10938 9.6791 4.2875 9.75098 4.5 9.75098ZM13.5 15.001C13.7125 15.001 13.8906 14.9291 14.0344 14.7853C14.1781 14.6416 14.25 14.4635 14.25 14.251C14.25 14.0385 14.1781 13.8604 14.0344 13.7166C13.8906 13.5729 13.7125 13.501 13.5 13.501C13.2875 13.501 13.1094 13.5729 12.9656 13.7166C12.8219 13.8604 12.75 14.0385 12.75 14.251C12.75 14.4635 12.8219 14.6416 12.9656 14.7853C13.1094 14.9291 13.2875 15.001 13.5 15.001Z" fill="#A2A3A3"/>
</g>
</g>
</svg>
