<svg width="22" height="19" viewBox="0 0 22 19" fill="none" xmlns="http://www.w3.org/2000/svg">
<path d="M4.52509 19C4.07509 19 3.67509 18.8625 3.32509 18.5875C2.97509 18.3125 2.73342 17.9583 2.60009 17.525L0.0500858 8.275C-0.0332475 7.95833 0.0209191 7.66667 0.212586 7.4C0.404252 7.13333 0.666752 7 1.00009 7H5.75009L10.1501 0.45C10.2334 0.316667 10.3501 0.208333 10.5001 0.125C10.6501 0.0416667 10.8084 0 10.9751 0C11.1418 0 11.3001 0.0416667 11.4501 0.125C11.6001 0.208333 11.7168 0.316667 11.8001 0.45L16.2001 7H21.0001C21.3334 7 21.5959 7.13333 21.7876 7.4C21.9793 7.66667 22.0334 7.95833 21.9501 8.275L19.4001 17.525C19.2668 17.9583 19.0251 18.3125 18.6751 18.5875C18.3251 18.8625 17.9251 19 17.4751 19H4.52509ZM4.50009 17H17.5001L19.7001 9H2.30009L4.50009 17ZM11.0001 15C11.5501 15 12.0209 14.8042 12.4126 14.4125C12.8043 14.0208 13.0001 13.55 13.0001 13C13.0001 12.45 12.8043 11.9792 12.4126 11.5875C12.0209 11.1958 11.5501 11 11.0001 11C10.4501 11 9.97925 11.1958 9.58759 11.5875C9.19592 11.9792 9.00009 12.45 9.00009 13C9.00009 13.55 9.19592 14.0208 9.58759 14.4125C9.97925 14.8042 10.4501 15 11.0001 15ZM8.17509 7H13.8001L10.9751 2.8L8.17509 7Z" fill="#A2A3A3"/>
</svg>
