<svg width="17" height="16" viewBox="0 0 17 16" fill="none" xmlns="http://www.w3.org/2000/svg">
<g id="Group 2749">
<g id="Placeholder logo">
<path id="Vector 139" d="M14.006 12.0312C11.987 11.513 9.56386 4.32467 8.50596 0.455325C8.45673 0.275249 8.60965 0.103429 8.79492 0.126349C17.2717 1.17501 16.701 8.81117 16.1302 10.7886C15.6668 12.3944 14.521 12.286 14.006 12.0312Z" fill="#35BEB1"/>
<path id="Vector 140" d="M2.9945 12.0312C5.01348 11.513 7.43663 4.32467 8.49453 0.455325C8.54376 0.275249 8.39084 0.103429 8.20557 0.126349C-0.271209 1.17501 0.299531 8.81117 0.87027 10.7886C1.33374 12.3944 2.47953 12.286 2.9945 12.0312Z" fill="#35BEB1"/>
<path id="Ellipse 94" d="M11.4518 12.227C11.9881 13.2127 12.1576 14.5599 11.2273 15.1872C10.5317 15.6562 9.48806 15.9161 8.40544 15.9161C7.08745 15.9161 5.82725 15.531 5.18249 14.8522C4.64659 14.288 4.78339 13.3971 5.13512 12.7029C5.6731 11.6413 6.68796 10.6479 8.40544 10.6479C10.1628 10.6479 10.9621 11.3271 11.4518 12.227Z" fill="#35BEB1"/>
</g>
</g>
</svg>
