<svg width="112" height="112" viewBox="0 0 112 112" fill="none" xmlns="http://www.w3.org/2000/svg">
<circle cx="56" cy="56" r="55.75" fill="#EDEDED" stroke="#A2A3A3" stroke-width="0.5"/>
<path d="M44.5029 68.4706C43.7805 68.4706 43.1598 68.2111 42.6408 67.6921C42.1218 67.1731 41.8623 66.5524 41.8623 65.83V49.0692C41.8623 48.3638 42.1218 47.7442 42.6408 47.2104C43.1598 46.6766 43.7805 46.4097 44.5029 46.4097H48.9884L51.6101 43.5097H60.8942V46.1692H52.7507L50.0913 49.0692H44.5029V65.83H66.8304V52.0866H69.4898V65.83C69.4898 66.5524 69.2229 67.1731 68.6891 67.6921C68.1553 68.2111 67.5357 68.4706 66.8304 68.4706H44.5029ZM67.2637 48.7532V45.7358H64.2275V43.5097H67.2637V40.459H69.4993V43.5097H72.5217V45.7358H69.4993V48.7532H67.2637ZM55.6455 63.2126C57.2973 63.2126 58.677 62.6602 59.7848 61.5555C60.8925 60.4507 61.4463 59.0756 61.4463 57.4301C61.4463 55.7847 60.894 54.4105 59.7892 53.3076C58.6844 52.2047 57.3093 51.6532 55.6638 51.6532C54.0184 51.6532 52.6442 52.2027 51.5413 53.3016C50.4384 54.4004 49.8869 55.7705 49.8869 57.4118C49.8869 59.0636 50.4364 60.4433 51.5353 61.5511C52.6342 62.6588 54.0042 63.2126 55.6455 63.2126ZM55.65 60.8358C54.6698 60.8358 53.8603 60.5109 53.2217 59.8612C52.5831 59.2114 52.2637 58.3965 52.2637 57.4163C52.2637 56.4361 52.5831 55.6235 53.2217 54.9786C53.8603 54.3337 54.6698 54.0112 55.65 54.0112C56.6302 54.0112 57.4483 54.3337 58.1043 54.9786C58.7603 55.6235 59.0884 56.4361 59.0884 57.4163C59.0884 58.3965 58.7603 59.2114 58.1043 59.8612C57.4483 60.5109 56.6302 60.8358 55.65 60.8358Z" fill="#A2A3A3"/>
</svg>
