<svg width="17" height="18" viewBox="0 0 17 18" fill="none" xmlns="http://www.w3.org/2000/svg">
<path d="M10.9167 16.6043L7.375 13.0627L8.54167 11.896L10.9167 14.271L15.625 9.56266L16.7917 10.7293L10.9167 16.6043ZM15.5 8.3335H13.8333V4.16683H12.1667V6.66683H3.83333V4.16683H2.16667V15.8335H7.16667V17.5002H2.16667C1.70833 17.5002 1.31597 17.337 0.989583 17.0106C0.663194 16.6842 0.5 16.2918 0.5 15.8335V4.16683C0.5 3.7085 0.663194 3.31613 0.989583 2.98975C1.31597 2.66336 1.70833 2.50016 2.16667 2.50016H5.64583C5.79861 2.01405 6.09722 1.61475 6.54167 1.30225C6.98611 0.989746 7.47222 0.833496 8 0.833496C8.55556 0.833496 9.05208 0.989746 9.48958 1.30225C9.92708 1.61475 10.2222 2.01405 10.375 2.50016H13.8333C14.2917 2.50016 14.684 2.66336 15.0104 2.98975C15.3368 3.31613 15.5 3.7085 15.5 4.16683V8.3335ZM8 4.16683C8.23611 4.16683 8.43403 4.08697 8.59375 3.92725C8.75347 3.76752 8.83333 3.56961 8.83333 3.3335C8.83333 3.09738 8.75347 2.89947 8.59375 2.73975C8.43403 2.58002 8.23611 2.50016 8 2.50016C7.76389 2.50016 7.56597 2.58002 7.40625 2.73975C7.24653 2.89947 7.16667 3.09738 7.16667 3.3335C7.16667 3.56961 7.24653 3.76752 7.40625 3.92725C7.56597 4.08697 7.76389 4.16683 8 4.16683Z" fill="#38F8E6"/>
</svg>
