<svg width="24" height="24" viewBox="0 0 24 24" fill="none" xmlns="http://www.w3.org/2000/svg">
<g id="1. Icons-24">
<path id="Vector" d="M12.003 15.7501C13.1843 15.7501 14.1875 15.3366 15.0125 14.5096C15.8375 13.6827 16.25 12.6785 16.25 11.4971C16.25 10.3158 15.8365 9.31257 15.0096 8.48757C14.1826 7.66257 13.1784 7.25007 11.9971 7.25007C10.8157 7.25007 9.81251 7.66356 8.98751 8.49052C8.16251 9.31747 7.75001 10.3216 7.75001 11.503C7.75001 12.6844 8.1635 13.6876 8.99046 14.5126C9.81741 15.3376 10.8216 15.7501 12.003 15.7501ZM11.9975 14.074C11.2818 14.074 10.6743 13.8235 10.175 13.3225C9.67575 12.8215 9.42611 12.2132 9.42611 11.4975C9.42611 10.7818 9.6766 10.1744 10.1776 9.67507C10.6786 9.17581 11.2869 8.92617 12.0026 8.92617C12.7182 8.92617 13.3257 9.17667 13.825 9.67765C14.3243 10.1786 14.5739 10.7869 14.5739 11.5026C14.5739 12.2183 14.3234 12.8258 13.8224 13.3251C13.3215 13.8243 12.7131 14.074 11.9975 14.074ZM12 19.3251C9.49131 19.3251 7.22537 18.6005 5.20219 17.1512C3.17899 15.7019 1.66992 13.8182 0.674988 11.5001C1.66992 9.18196 3.17899 7.29826 5.20219 5.84897C7.22537 4.39969 9.49131 3.67505 12 3.67505C14.5087 3.67505 16.7747 4.39969 18.7978 5.84897C20.821 7.29826 22.3301 9.18196 23.325 11.5001C22.3301 13.8182 20.821 15.7019 18.7978 17.1512C16.7747 18.6005 14.5087 19.3251 12 19.3251ZM11.9971 17.5001C14.0098 17.5001 15.8588 16.9542 17.544 15.8626C19.2292 14.7709 20.5134 13.3167 21.3968 11.5001C20.5134 9.68341 19.2301 8.22924 17.5469 7.13757C15.8637 6.04591 14.0157 5.50007 12.003 5.50007C9.99023 5.50007 8.14126 6.04591 6.45606 7.13757C4.77086 8.22924 3.47826 9.68341 2.57826 11.5001C3.47826 13.3167 4.76988 14.7709 6.45311 15.8626C8.13633 16.9542 9.98431 17.5001 11.9971 17.5001Z" fill="#A2A3A3"/>
</g>
</svg>
