<svg width="24" height="24" viewBox="0 0 24 24" fill="none" xmlns="http://www.w3.org/2000/svg">
<g id="1. Icons-24">
<path id="Vector" d="M15.7956 13.3412L14.2293 11.789C14.6155 10.8601 14.4588 10.1075 13.7592 9.53146C13.0596 8.95537 12.3485 8.84016 11.6261 9.18581L10.1587 7.70428C10.4232 7.54922 10.7163 7.43472 11.038 7.36081C11.3598 7.28689 11.6804 7.24993 12 7.24993C13.1833 7.24993 14.1875 7.66243 15.0125 8.48743C15.8375 9.31243 16.25 10.3166 16.25 11.4999C16.25 11.8101 16.2112 12.1373 16.1337 12.4815C16.0562 12.8257 15.9435 13.1123 15.7956 13.3412ZM19.2891 16.863L18.0772 15.6369C18.8467 15.0463 19.5168 14.3919 20.0875 13.6738C20.6581 12.9557 21.0993 12.2311 21.4109 11.4999C20.5587 9.65935 19.3063 8.19921 17.6538 7.11951C16.0013 6.03979 14.2 5.49993 12.25 5.49993C11.55 5.49993 10.8522 5.56189 10.1565 5.68581C9.46086 5.80972 8.93296 5.95392 8.57281 6.11841L7.14021 4.67491C7.72355 4.40824 8.4835 4.17491 9.42009 3.97491C10.3567 3.77491 11.2583 3.67491 12.125 3.67491C14.546 3.67491 16.7746 4.37057 18.8109 5.76188C20.8471 7.15318 22.3518 9.06587 23.325 11.4999C22.9011 12.5854 22.3404 13.5816 21.6429 14.4885C20.9455 15.3954 20.1609 16.1869 19.2891 16.863ZM20.2728 22.5271L16.2706 18.5858C15.6873 18.8191 15.0243 19.0007 14.2815 19.1304C13.5388 19.2601 12.7783 19.325 12 19.325C9.51956 19.325 7.25705 18.6269 5.21249 17.2309C3.16792 15.8349 1.65542 13.9246 0.674988 11.4999C0.989471 10.6427 1.44961 9.78978 2.05541 8.94123C2.66121 8.09268 3.37969 7.27928 4.21084 6.50101L1.10324 3.42168L2.26629 2.21948L21.3609 21.3141L20.2728 22.5271ZM5.47606 7.76298C4.86883 8.23182 4.2989 8.81171 3.76629 9.50266C3.23369 10.1936 2.83767 10.8593 2.57824 11.4999C3.43767 13.3499 4.71449 14.8124 6.40869 15.8874C8.10289 16.9624 10.0333 17.4999 12.2 17.4999C12.6935 17.4999 13.1904 17.4713 13.6907 17.4141C14.1911 17.3568 14.5746 17.2615 14.8413 17.1282L13.2413 15.5282C13.0862 15.6021 12.8918 15.6575 12.6581 15.6945C12.4244 15.7315 12.2051 15.7499 12 15.7499C10.8333 15.7499 9.83332 15.3416 8.99999 14.5249C8.16665 13.7083 7.74999 12.6999 7.74999 11.4999C7.74999 11.2876 7.76611 11.0706 7.79836 10.8489C7.83061 10.6271 7.87898 10.4304 7.94346 10.2586L5.47606 7.76298Z" fill="#A2A3A3"/>
</g>
</svg>
