<svg width="35" height="36" viewBox="0 0 35 36" fill="none" xmlns="http://www.w3.org/2000/svg">
<g id="Group 2749">
<g id="Placeholder logo">
<path id="Vector 139" d="M28.8686 26.6695C24.4774 25.5425 19.1973 9.74571 16.9634 1.49448C16.8942 1.2388 17.1152 1.00017 17.3784 1.03029C35.9053 3.1507 34.6714 19.7219 33.4375 23.9969C32.4407 27.4507 29.9762 27.2177 28.8686 26.6695Z" fill="#35BEB1"/>
<path id="Vector 140" d="M5.18512 26.6695C9.57632 25.5425 14.8564 9.74571 17.0903 1.49448C17.1595 1.2388 16.9385 1.00017 16.6753 1.03029C-1.85156 3.1507 -0.617687 19.7219 0.616188 23.9969C1.61305 27.4507 4.0775 27.2177 5.18512 26.6695Z" fill="#35BEB1"/>
<path id="Ellipse 94" d="M23.9049 28.2158C24.5099 29.6886 24.9004 31.4729 23.8351 32.6561C22.4736 34.1683 19.714 35.0283 16.8254 35.0283C13.5764 35.0283 10.4907 33.9403 9.37391 32.0602C8.81006 31.1109 9.02084 29.9205 9.43631 28.8975C10.4725 26.3462 12.7121 23.6973 16.8254 23.6973C21.3078 23.6973 22.8924 25.7516 23.9049 28.2158Z" fill="#35BEB1"/>
</g>
</g>
</svg>
