<svg width="32" height="32" viewBox="0 0 32 32" fill="none" xmlns="http://www.w3.org/2000/svg">
<g id="add_a_photo_FILL0_wght600_GRAD0_opsz48 (1) 1">
<path id="Vector" d="M3.50385 28.4726C2.78147 28.4726 2.16077 28.2131 1.64175 27.694C1.12277 27.175 0.863281 26.5543 0.863281 25.832V9.0711C0.863281 8.36577 1.12278 7.74619 1.64178 7.21237C2.1608 6.67857 2.7815 6.41167 3.50388 6.41167H7.98938L10.6111 3.51167H19.8952V6.1711H11.7517L9.09225 9.0711H3.50385V25.832H25.8314V12.0885H28.4908V25.832C28.4908 26.5543 28.2239 27.175 27.6901 27.694C27.1563 28.2131 26.5367 28.4726 25.8314 28.4726H3.50385ZM26.2647 8.75517V5.73777H23.2285V3.51167H26.2647V0.460938H28.5002V3.51167H31.5227V5.73777H28.5002V8.75517H26.2647ZM14.6465 23.2146C16.2983 23.2146 17.678 22.6622 18.7857 21.5574C19.8935 20.4527 20.4473 19.0775 20.4473 17.4321C20.4473 15.7866 19.8949 14.4124 18.7902 13.3095C17.6854 12.2066 16.3103 11.6552 14.6648 11.6552C13.0193 11.6552 11.6452 12.2046 10.5422 13.3035C9.43936 14.4024 8.88791 15.7725 8.88791 17.4138C8.88791 19.0655 9.43736 20.4453 10.5362 21.553C11.6351 22.6607 13.0052 23.2146 14.6465 23.2146ZM14.6509 20.8378C13.6707 20.8378 12.8613 20.5129 12.2227 19.8631C11.584 19.2134 11.2647 18.3984 11.2647 17.4182C11.2647 16.438 11.584 15.6255 12.2227 14.9805C12.8613 14.3356 13.6707 14.0131 14.6509 14.0131C15.6311 14.0131 16.4493 14.3356 17.1053 14.9805C17.7613 15.6255 18.0893 16.438 18.0893 17.4182C18.0893 18.3984 17.7613 19.2134 17.1053 19.8631C16.4493 20.5129 15.6311 20.8378 14.6509 20.8378Z" fill="#A2A3A3"/>
</g>
</svg>
